<?xml version="1.0" encoding="UTF-8" standalone="no"?>
<svg
   xmlns:dc="http://purl.org/dc/elements/1.1/"
   xmlns:cc="http://creativecommons.org/ns#"
   xmlns:rdf="http://www.w3.org/1999/02/22-rdf-syntax-ns#"
   xmlns:svg="http://www.w3.org/2000/svg"
   xmlns="http://www.w3.org/2000/svg"
   xmlns:sodipodi="http://sodipodi.sourceforge.net/DTD/sodipodi-0.dtd"
   xmlns:inkscape="http://www.inkscape.org/namespaces/inkscape"
   width="398.8504pt"
   height="398.8504pt"
   viewBox="0 0 398.8504 398.8504"
   version="1.2"
   id="svg1073"
   sodipodi:docname="i4logo.svg"
   inkscape:version="0.92.4 (5da689c313, 2019-01-14)">
  <metadata
     id="metadata1079">
    <rdf:RDF>
      <cc:Work
         rdf:about="">
        <dc:format>image/svg+xml</dc:format>
        <dc:type
           rdf:resource="http://purl.org/dc/dcmitype/StillImage" />
        <dc:title></dc:title>
      </cc:Work>
    </rdf:RDF>
  </metadata>
  <defs
     id="defs1077" />
  <sodipodi:namedview
     pagecolor="#ffffff"
     bordercolor="#666666"
     borderopacity="1"
     objecttolerance="10"
     gridtolerance="10"
     guidetolerance="10"
     inkscape:pageopacity="0"
     inkscape:pageshadow="2"
     inkscape:window-width="1270"
     inkscape:window-height="1401"
     id="namedview1075"
     showgrid="false"
     inkscape:zoom="0.44377541"
     inkscape:cx="-193.79172"
     inkscape:cy="265.90027"
     inkscape:window-x="3840"
     inkscape:window-y="29"
     inkscape:window-maximized="0"
     inkscape:current-layer="svg1073" />
  <path
     inkscape:connector-curvature="0"
     id="path1058"
     d="M 1,397.85156 H 397.82422 V 1.023438 H 1 Z m 0,0"
     style="fill:#ffffff;fill-opacity:1;fill-rule:evenodd;stroke:none" />
  <path
     inkscape:connector-curvature="0"
     id="path1060"
     d="M 1,1 H 181.34375 V 181.34375 H 1 Z m 0,0"
     style="fill:#d4d4d4;fill-opacity:1;fill-rule:evenodd;stroke:none" />
  <path
     inkscape:connector-curvature="0"
     id="path1062"
     d="M 217.43359,1 H 397.85156 V 181.34375 H 217.43359 Z m 0,0"
     style="fill:#d4d4d4;fill-opacity:1;fill-rule:evenodd;stroke:none" />
  <path
     inkscape:connector-curvature="0"
     id="path1064"
     d="M 1,217.50781 H 181.34375 V 397.85156 H 1 Z m 0,0"
     style="fill:#d4d4d4;fill-opacity:1;fill-rule:evenodd;stroke:none" />
  <path
     inkscape:connector-curvature="0"
     id="path1066"
     d="M 217.43359,217.50781 H 397.85156 V 397.85156 H 217.43359 Z m 0,0"
     style="fill:#d4d4d4;fill-opacity:1;fill-rule:evenodd;stroke:none" />
  <path
     inkscape:connector-curvature="0"
     id="path1068"
     d="M 136.27734,190.42187 86.25,154.62891 28.058594,145.28125 127.27344,82.207031 Z m 0,0"
     style="fill:#b0232e;fill-opacity:1;fill-rule:evenodd;stroke:none" />
  <path
     inkscape:connector-curvature="0"
     id="path1070"
     d="m 113.48047,149.84375 -2.10547,3.82031 -1.91016,3.89453 -1.73828,3.94141 -1.5625,3.99609 -1.36328,4.04297 -1.1914,4.06641 -1.01563,4.09375 -0.82031,4.11719 -0.66797,4.14062 -0.47266,4.16797 -0.29687,4.16797 -0.14844,4.14062 0.0508,4.16407 0.22266,4.14453 0.39453,4.14062 0.57422,4.09375 0.71875,4.09375 0.91797,4.04297 1.0664,4.01563 1.23828,3.96875 1.41407,3.92187 1.5625,3.86719 1.73828,3.79297 1.90625,3.74609 2.0625,3.64844 2.23047,3.59375 2.40625,3.5 2.53125,3.39844 2.72656,3.32031 2.85156,3.22656 3.05078,3.10156 3.17578,3 3.44922,2.97657 3.54297,2.77734 3.67188,2.60547 3.72265,2.42969 3.82031,2.23437 3.89454,2.05469 3.96484,1.86328 4.01953,1.68359 4.09375,1.51563 4.14063,1.3125 4.16796,1.11719 4.21485,0.9414 4.24219,0.76953 4.26562,0.57032 4.29297,0.39843 4.28906,0.19922 4.29297,0.0234 4.3125,-0.14844 4.29297,-0.37109 4.26562,-0.52344 4.26563,-0.74219 4.21875,-0.89453 4.21484,-1.08984 4.14063,-1.28906 4.11719,-1.48829 4.04296,-1.66406 3.9961,-1.83594 3.9414,-2.03125 3.8711,-2.23437 3.76953,-2.40625 3.69531,-2.57813 3.59766,-2.80468 3.47265,-2.94922 3.32422,-3.05078 3.125,-3.19922 2.97657,-3.32422 2.80078,-3.42188 2.65625,-3.52343 2.45312,-3.6211 2.3086,-3.71875 2.10546,-3.79687 1.96094,-3.86719 1.76172,-3.96875 1.58594,-4.01953 1.41406,-4.07031 1.24219,-4.11328 1.0664,-4.16797 0.86719,-4.21875 0.69531,-4.23828 0.51954,-4.29297 0.32421,-4.28907 0.1211,-4.3164 -0.0469,-4.31641 -0.22656,-4.3164 -0.44531,-4.31641 -0.6211,-4.3125 -0.79296,-4.29297 -1.01563,-4.26562 -1.19141,-4.24219 -1.39062,-4.19141 -1.58594,-4.16797 -1.78515,-4.11718 -2.00782,-4.04297 -2.18359,-3.99219 -2.35547,-3.89453 -2.53125,-3.7461 -2.65234,-3.62109 -2.80469,-3.44531 -2.94922,-3.30078 -3.07812,-3.17578 -3.17579,-3 -3.32031,-2.82813 -3.42578,-2.70312 -3.51953,-2.53125 -3.62109,-2.35547 -3.72266,-2.20703 -3.79297,-2.03125 -3.87109,-1.86328 -3.96875,-1.71094 -4.01953,-1.51172 -4.08985,-1.33984 -4.14453,-1.19141 -4.19141,-0.99219 -4.21484,-0.79297 -4.26562,-0.64453 -4.31641,-0.42187 -4.33984,-0.27344 -4.33985,-0.0508 -4.36719,0.125 -4.36328,0.32422 -4.36718,0.51953 -4.36329,0.71875 -4.36718,0.91797 -4.33985,1.14062 -4.3164,1.31641 -4.29297,1.53906 -0.99219,-2.63281 -3.04687,-7.886721 -0.9961,-2.628907 -2.03125,-5.257812 -0.99219,-2.628906 -1.01953,-2.652344 -1.01562,-2.632812 -1.01563,-2.625 -0.99218,-2.632813 -1.01563,-2.628906 -1.01953,-2.628907 -0.99219,-2.628906 -1.01562,-2.628906 6.15234,-2.207031 6.19922,-1.910157 6.22656,-1.636718 6.25,-1.3125 6.27344,-1.070313 6.27734,-0.765625 6.27344,-0.472656 6.27734,-0.222656 6.25,0.05078 6.22266,0.347656 6.17969,0.59375 6.14844,0.867188 6.10156,1.117187 6.02734,1.363282 5.95313,1.636718 5.90234,1.910156 5.78125,2.132813 5.73047,2.382813 5.57812,2.628906 5.50782,2.851562 5.38281,3.125 5.23437,3.324219 5.10938,3.570313 4.96094,3.820312 4.80859,4.019531 4.64063,4.242188 4.46484,4.488281 4.3125,4.687501 4.09375,4.88672 3.91797,5.13281 3.69531,5.3086 3.5,5.53125 3.22266,5.67968 2.97656,5.77735 2.67969,5.85546 2.40625,5.92579 2.10547,5.98046 1.86328,6.05079 1.5625,6.10156 1.28906,6.125 1.04297,6.17578 0.74219,6.17578 0.49609,6.20313 0.22266,6.19921 -0.0469,6.20313 -0.32422,6.19922 -0.57031,6.15234 -0.84375,6.125 -1.08984,6.07813 -1.33985,6.02734 -1.63672,5.97656 -1.85937,5.92578 -2.13672,5.83204 -2.37891,5.72656 -2.6289,5.65625 -2.87891,5.55469 -3.125,5.43359 -3.37109,5.30859 -3.64844,5.1836 -3.86719,5.05859 -4.11719,4.88672 -4.33984,4.73828 -4.61719,4.58594 -4.83593,4.39453 -5.00782,4.16406 -5.18359,3.91797 -5.28516,3.67188 -5.42968,3.375 -5.53125,3.14843 -5.63282,2.85157 -5.72656,2.60546 -5.83203,2.35547 -5.875,2.08594 -5.98047,1.80859 -6,1.5625 -6.07812,1.28907 -6.10157,1.04297 -6.15234,0.76953 -6.14844,0.49609 -6.17578,0.24609 -6.20312,-0.0234 -6.17579,-0.29688 -6.15234,-0.54687 -6.14844,-0.81641 -6.10156,-1.09375 -6.07812,-1.33984 -6.02735,-1.61328 -5.95312,-1.88282 -5.90235,-2.13281 -5.80468,-2.40625 -5.75391,-2.65234 -5.62891,-2.95313 -5.53125,-3.19922 -5.43359,-3.47265 -5.28125,-3.72266 -5.18359,-3.99219 -4.86328,-4.11718 -4.636724,-4.28907 -4.414062,-4.4414 -4.167969,-4.61328 -3.96875,-4.76172 -3.746094,-4.91016 -3.523437,-5.03516 -3.273438,-5.16015 -3.050781,-5.28125 -2.800781,-5.38281 -2.582032,-5.50782 -2.355468,-5.57812 -2.109375,-5.6836 -1.859375,-5.72656 -1.609375,-5.83203 -1.367188,-5.875 -1.140625,-5.92969 -0.894531,-5.95312 -0.617187,-6 -0.398438,-6.05469 -0.125,-6.05078 0.125,-6.05078 0.371094,-6.07813 0.644531,-6.07812 0.894531,-6.05078 1.167969,-6.02735 1.414063,-6.0039 1.683593,-5.95313 1.960938,-5.92578 2.207031,-5.85156 2.503906,-5.80469 2.753906,-5.73047 z m 0,0"
     style="fill:#b0232e;fill-opacity:1;fill-rule:evenodd;stroke:none" />
</svg>
