<?xml version="1.0" encoding="UTF-8" standalone="no"?>
<svg
   xmlns:dc="http://purl.org/dc/elements/1.1/"
   xmlns:cc="http://creativecommons.org/ns#"
   xmlns:rdf="http://www.w3.org/1999/02/22-rdf-syntax-ns#"
   xmlns:svg="http://www.w3.org/2000/svg"
   xmlns="http://www.w3.org/2000/svg"
   xmlns:xlink="http://www.w3.org/1999/xlink"
   id="svg6"
   version="1.1"
   viewBox="0 0 24 24"
   height="24"
   width="24">
  <path
     id="path4"
     fill="none"
     d="M0 0h24v24H0z" />
  <path
     style="stroke-width:1.68772173"
     transform="matrix(0.59251473,0,0,0.59251473,4.8898233,4.8898233)"
     id="path8"
     d="M 19,3 H 5 C 3.9,3 3,3.9 3,5 v 14 c 0,1.1 0.9,2 2,2 h 14 c 1.1,0 2,-0.9 2,-2 V 5 C 21,3.9 20.1,3 19,3 Z"/>
  <path
     style="stroke-width:1.68772173"
     transform="matrix(0.59251473,0,0,0.59251473,4.8898233,4.8898233)"
     id="path8-7"
     d="M 19,3 H 5 C 3.9,3 3,3.9 3,5 v 14 c 0,1.1 0.9,2 2,2 h 14 c 1.1,0 2,-0.9 2,-2 V 5 C 21,3.9 20.1,3 19,3 Z"/>
  <rect
     rx="1.6271187"
     ry="1.6271187"
     y="5.8644066"
     x="5.8644066"
     height="12.271187"
     width="12.271187"
     id="rect842"
     style="opacity:1;fill:#000000;fill-opacity:1;fill-rule:evenodd;stroke:none;stroke-width:2;stroke-linecap:round;stroke-linejoin:miter;stroke-miterlimit:4;stroke-dasharray:none;stroke-dashoffset:0;stroke-opacity:1;paint-order:normal" />
</svg>
