<?xml version="1.0" encoding="UTF-8" standalone="no"?>
<svg
   xmlns:dc="http://purl.org/dc/elements/1.1/"
   xmlns:cc="http://creativecommons.org/ns#"
   xmlns:rdf="http://www.w3.org/1999/02/22-rdf-syntax-ns#"
   xmlns:svg="http://www.w3.org/2000/svg"
   xmlns="http://www.w3.org/2000/svg"
   xmlns:sodipodi="http://sodipodi.sourceforge.net/DTD/sodipodi-0.dtd"
   xmlns:inkscape="http://www.inkscape.org/namespaces/inkscape"
   width="24"
   height="24"
   viewBox="0 0 24 24"
   version="1.1"
   id="svg6"
   sodipodi:docname="reset.svg"
   inkscape:version="0.92.4 (5da689c313, 2019-01-14)">
  <metadata
     id="metadata12">
    <rdf:RDF>
      <cc:Work
         rdf:about="">
        <dc:format>image/svg+xml</dc:format>
        <dc:type
           rdf:resource="http://purl.org/dc/dcmitype/StillImage" />
      </cc:Work>
    </rdf:RDF>
  </metadata>
  <defs
     id="defs10" />
  <sodipodi:namedview
     pagecolor="#ffffff"
     bordercolor="#666666"
     borderopacity="1"
     objecttolerance="10"
     gridtolerance="10"
     guidetolerance="10"
     inkscape:pageopacity="0"
     inkscape:pageshadow="2"
     inkscape:window-width="1270"
     inkscape:window-height="699"
     id="namedview8"
     showgrid="false"
     showguides="false"
     inkscape:zoom="9.8333333"
     inkscape:cx="-8.7457627"
     inkscape:cy="12"
     inkscape:window-x="2566"
     inkscape:window-y="731"
     inkscape:window-maximized="0"
     inkscape:current-layer="svg6" />
  <path
     d="M 15,6.8038476 13.5,9.4019238 18.964102,7.9378222 17.5,2.4737206 16,5.0717968 C 12.172168,2.8617968 7.2817968,4.1721677 5.0717968,8 c -0.785,1.3596599 -1.1166283,2.854057 -1.0561285,4.309268 L 6.0100654,11.774871 C 6.0353539,10.83107 6.2988476,9.8746857 6.8038476,9 8.4588476,6.1334559 12.133456,5.1488476 15,6.8038476 Z m 4.984332,4.8868844 -1.994397,0.534397 C 17.950986,13.17259 17.701152,14.125314 17.196152,15 15.541152,17.866544 11.866544,18.851152 9,17.196152 L 10.5,14.598076 5.0358984,16.062178 6.5,21.526279 8,18.928203 c 3.827832,2.21 8.718203,0.899629 10.928203,-2.928203 0.785,-1.35966 1.116629,-2.854057 1.056129,-4.309268 z"
     id="path2"
     inkscape:connector-curvature="0" />
  <path
     d="M0 0h24v24H0z"
     fill="none"
     id="path4" />
</svg>
