<?xml version="1.0" encoding="UTF-8" standalone="no"?>
<svg
   xmlns:dc="http://purl.org/dc/elements/1.1/"
   xmlns:cc="http://creativecommons.org/ns#"
   xmlns:rdf="http://www.w3.org/1999/02/22-rdf-syntax-ns#"
   xmlns:svg="http://www.w3.org/2000/svg"
   xmlns="http://www.w3.org/2000/svg"
   xmlns:sodipodi="http://sodipodi.sourceforge.net/DTD/sodipodi-0.dtd"
   xmlns:inkscape="http://www.inkscape.org/namespaces/inkscape"
   width="24"
   height="24"
   viewBox="0 0 24 24"
   version="1.1"
   id="svg8"
   sodipodi:docname="baseline-image_search-24px.svg"
   inkscape:version="0.92.4 (5da689c313, 2019-01-14)">
  <metadata
     id="metadata14">
    <rdf:RDF>
      <cc:Work
         rdf:about="">
        <dc:format>image/svg+xml</dc:format>
        <dc:type
           rdf:resource="http://purl.org/dc/dcmitype/StillImage" />
      </cc:Work>
    </rdf:RDF>
  </metadata>
  <defs
     id="defs12" />
  <sodipodi:namedview
     pagecolor="#ffffff"
     bordercolor="#666666"
     borderopacity="1"
     objecttolerance="10"
     gridtolerance="10"
     guidetolerance="10"
     inkscape:pageopacity="0"
     inkscape:pageshadow="2"
     inkscape:window-width="2560"
     inkscape:window-height="1440"
     id="namedview10"
     showgrid="false"
     inkscape:zoom="9.8333333"
     inkscape:cx="-7.8305085"
     inkscape:cy="11.084746"
     inkscape:window-x="0"
     inkscape:window-y="0"
     inkscape:window-maximized="0"
     inkscape:current-layer="svg8" />
  <path
     fill="none"
     d="M0 0h24v24H0V0z"
     id="path2" />
  <path
     d="M 15.5 2 C 13.01 2 11 4.01 11 6.5 C 11 8.99 13.010234 11 15.490234 11 C 16.370234 11 17.190859 10.740781 17.880859 10.300781 L 21 13.419922 L 22.419922 12 L 19.300781 8.890625 C 19.740781 8.190625 20 7.38 20 6.5 C 20 4.01 17.99 2 15.5 2 z M 4 4 C 2.9 4 2 4.9 2 6 L 2 20 C 2 21.1 2.9 22 4 22 L 18 22 C 19.1 22 20 21.1 20 20 L 20 15 L 18 13 L 18 20 L 4 20 L 4 6 L 9.0195312 6 C 9.0695313 5.29 9.24 4.62 9.5 4 L 4 4 z M 15.5 4 C 16.88 4 18 5.12 18 6.5 C 18 7.88 16.88 9 15.5 9 C 14.12 9 13 7.88 13 6.5 C 13 5.12 14.12 4 15.5 4 z M 5.5683594 10.332031 L 5.5683594 12.332031 L 7.4453125 12.332031 L 8.9746094 18.044922 L 16.042969 18.044922 L 16.042969 16.044922 L 10.509766 16.044922 L 8.9785156 10.332031 L 5.5683594 10.332031 z "
     id="path4" />
  <path
     fill="none"
     d="M0 0h24v24H0z"
     id="path6" />
</svg>
