<?xml version="1.0" encoding="UTF-8" standalone="no"?>
<!-- Created with Inkscape (http://www.inkscape.org/) -->

<svg
   xmlns:dc="http://purl.org/dc/elements/1.1/"
   xmlns:cc="http://creativecommons.org/ns#"
   xmlns:rdf="http://www.w3.org/1999/02/22-rdf-syntax-ns#"
   xmlns:svg="http://www.w3.org/2000/svg"
   xmlns="http://www.w3.org/2000/svg"
   xmlns:sodipodi="http://sodipodi.sourceforge.net/DTD/sodipodi-0.dtd"
   xmlns:inkscape="http://www.inkscape.org/namespaces/inkscape"
   version="1.1"
   id="svg1032"
   width="490"
   height="321"
   viewBox="0 0 489.99999 321"
   sodipodi:docname="coffee-front.svg"
   inkscape:version="0.92.4 (5da689c313, 2019-01-14)">
  <metadata
     id="metadata1038">
    <rdf:RDF>
      <cc:Work
         rdf:about="">
        <dc:format>image/svg+xml</dc:format>
        <dc:type
           rdf:resource="http://purl.org/dc/dcmitype/StillImage" />
        <dc:title />
      </cc:Work>
    </rdf:RDF>
  </metadata>
  <defs
     id="defs1036" />
  <sodipodi:namedview
     pagecolor="#ffffff"
     bordercolor="#666666"
     borderopacity="1"
     objecttolerance="10"
     gridtolerance="10"
     guidetolerance="10"
     inkscape:pageopacity="0"
     inkscape:pageshadow="2"
     inkscape:window-width="1270"
     inkscape:window-height="698"
     id="namedview1034"
     showgrid="false"
     inkscape:zoom="1"
     inkscape:cx="44.44343"
     inkscape:cy="137.43399"
     inkscape:window-x="1280"
     inkscape:window-y="29"
     inkscape:window-maximized="0"
     inkscape:current-layer="flowRoot2318"
     showguides="false"
     inkscape:lockguides="true"
     fit-margin-top="0"
     fit-margin-left="0"
     fit-margin-right="0"
     fit-margin-bottom="0">
    <inkscape:grid
       type="xygrid"
       id="grid1462"
       originx="-1652.6426"
       originy="1054.4238" />
  </sodipodi:namedview>
  <path
     style="fill:#04872c;fill-opacity:1;stroke-width:0.68152809"
     d="m 394.08564,308.98057 c -2.31379,-0.13474 -6.18426,-0.73333 -7.80268,-1.20671 -0.34308,-0.10039 -0.66142,-0.15928 -0.70749,-0.13079 -0.0525,0.032 -0.0648,0.0204 -0.0327,-0.0307 0.0286,-0.0457 0.0102,-0.0825 -0.0402,-0.0825 -0.10379,0 -0.8055,-0.21468 -3.18703,-0.975 -0.91454,-0.29196 -1.69905,-0.50855 -1.74321,-0.48122 -0.0463,0.0286 -0.0607,0.0177 -0.0341,-0.0252 0.0259,-0.0423 -0.0375,-0.096 -0.14584,-0.12309 -0.18981,-0.0477 -0.77408,-0.26695 -2.23555,-0.83909 -0.41246,-0.16146 -1.08104,-0.45015 -1.48567,-0.64139 -0.40462,-0.1913 -0.77121,-0.32584 -0.81463,-0.29905 -0.0436,0.0266 -0.0607,0.0191 -0.0382,-0.017 0.0225,-0.0361 -0.33129,-0.25816 -0.78601,-0.49322 -0.45465,-0.23499 -1.00641,-0.53432 -1.22613,-0.66517 -0.21973,-0.13086 -0.60793,-0.35256 -0.86268,-0.49261 -0.25476,-0.14013 -0.74144,-0.45894 -1.08152,-0.70859 -0.34008,-0.24964 -0.65127,-0.45383 -0.69161,-0.45383 -0.0402,0 -0.084,-0.0245 -0.097,-0.0552 -0.0129,-0.03 -0.39345,-0.36421 -0.84524,-0.74205 -0.99496,-0.83208 -2.74689,-2.61318 -3.30261,-3.35755 -0.10741,-0.14394 -0.23792,-0.30464 -0.28999,-0.35719 -0.0518,-0.0525 -0.22341,-0.28828 -0.38077,-0.52402 -0.46194,-0.69203 -0.77367,-1.14034 -0.81968,-1.17864 -0.0232,-0.0198 -0.0559,-0.0692 -0.0714,-0.11027 -0.0245,-0.0641 -0.53152,-0.88489 -0.93778,-1.51851 -0.0682,-0.10598 -0.443,-0.83555 -0.83351,-1.62129 -0.68282,-1.37416 -1.13216,-2.41731 -1.39993,-3.25007 -0.0695,-0.21611 -0.15818,-0.43304 -0.19703,-0.48218 -0.0388,-0.0491 -0.0525,-0.0893 -0.03,-0.0893 0.0225,0 -0.0232,-0.18483 -0.10093,-0.41076 -0.36107,-1.04751 -0.86786,-3.00145 -1.28182,-4.9421 -0.12097,-0.56717 -0.23083,-1.04935 -0.24419,-1.07143 -0.0746,-0.1239 -0.69298,-3.85554 -0.90037,-5.43321 -0.0801,-0.60894 -0.15906,-1.20358 -0.17563,-1.32148 -0.29646,-2.11431 -0.97949,-11.22634 -1.28243,-17.10758 -0.0579,-1.11969 -0.12185,-2.40546 -0.14257,-2.85724 -0.0994,-2.16092 -0.18286,-3.78957 -0.21421,-4.17872 -0.0191,-0.23574 -0.0532,-0.9429 -0.0759,-1.57147 -0.0225,-0.62857 -0.0862,-2.10722 -0.14108,-3.28578 -0.0552,-1.17864 -0.11913,-2.6412 -0.14271,-3.25014 -0.0238,-0.60895 -0.0572,-1.28393 -0.075,-1.50005 -0.0177,-0.21604 -0.0801,-1.72678 -0.13869,-3.3572 -0.0586,-1.63042 -0.13855,-3.81622 -0.17753,-4.85732 -0.0388,-1.0411 -0.0881,-2.37506 -0.10912,-2.96438 -0.06,-1.68412 -0.23935,-7.54547 -0.28644,-9.35738 -0.0232,-0.90364 -0.0735,-2.35004 -0.11102,-3.21436 -0.0919,-2.1156 -0.0872,-5.36553 0.009,-6.34536 0.25018,-2.54353 1.21284,-3.33056 5.124,-4.18949 0.63259,-0.1389 2.80176,-0.52117 3.40777,-0.60057 0.15709,-0.0204 0.63928,-0.087 1.07143,-0.14768 3.70002,-0.51926 9.62325,-1.05814 13.75038,-1.25095 2.85424,-0.13337 3.17496,-0.14666 5.25015,-0.21822 9.73985,-0.33586 18.74229,-0.35883 25.64365,-0.0654 2.05106,0.0872 5.95349,0.27581 6.60571,0.31923 0.25626,0.017 0.98018,0.0647 1.60882,0.10659 8.44195,0.55865 14.01017,1.26989 17.78618,2.27201 0.62557,0.16602 1.76522,0.61958 2.14293,0.8528 0.96606,0.59661 1.37675,1.43189 1.53616,3.12392 0.0889,0.9433 0.22518,1.56642 0.43073,1.96941 0.28072,0.55019 1.17843,1.27486 1.98556,1.60288 0.80693,0.32789 1.12016,0.35058 4.54784,0.32939 1.96034,-0.0123 3.63234,0.0123 4.28579,0.0627 1.7995,0.13841 3.75958,0.58114 5.00786,1.13099 0.67424,0.29701 1.61134,0.78417 1.67091,0.86868 0.0198,0.0279 0.1804,0.13992 0.35718,0.2491 0.72801,0.44953 2.36143,2.03572 3.01699,2.92975 0.47721,0.65079 0.95482,1.37607 1.36429,2.07184 0.51755,0.87945 1.62973,3.36035 2.09747,4.67869 0.54597,1.53924 1.10891,3.19003 1.14476,3.35728 0.0211,0.0982 0.14925,0.58032 0.28501,1.07143 0.5866,2.12248 1.0895,5.12836 1.23691,7.39308 0.18258,2.80415 -0.26062,5.53742 -1.19022,7.33979 -0.13685,0.26531 -0.22593,0.51939 -0.19798,0.56464 0.0314,0.0511 0.0191,0.0627 -0.0313,0.0314 -0.0484,-0.03 -0.0825,-0.007 -0.0825,0.0545 0,0.0579 -0.0259,0.11607 -0.0579,0.12922 -0.032,0.013 -0.18101,0.2247 -0.33156,0.47026 -0.15055,0.24548 -0.29435,0.4464 -0.31957,0.4464 -0.0252,0 -0.1068,0.10448 -0.18122,0.23213 -0.15334,0.26307 -1.9934,2.12514 -2.09999,2.12514 -0.0382,0 -0.0801,0.0239 -0.0932,0.0538 -0.0416,0.0938 -0.75493,0.66074 -0.83132,0.66074 -0.0402,0 -0.0842,0.0259 -0.0973,0.0572 -0.0129,0.0314 -0.28099,0.23035 -0.59525,0.44183 -0.31432,0.21155 -0.70027,0.47141 -0.85763,0.57753 -0.31752,0.21413 -2.42052,1.2934 -3.03532,1.55784 -1.35127,0.58107 -2.04418,0.83296 -6.1788,2.24604 -0.86432,0.29544 -2.08575,0.71901 -2.71433,0.94126 -0.62864,0.22231 -1.27145,0.44667 -1.42861,0.4986 -0.15717,0.0518 -0.38221,0.13467 -0.50004,0.18381 -0.11784,0.0491 -0.25305,0.0975 -0.30049,0.10734 -0.0477,0.01 -0.18892,0.0693 -0.31452,0.13188 -0.12561,0.0627 -0.25592,0.11395 -0.28958,0.11395 -0.0334,0 -0.5671,0.21236 -1.18545,0.47196 -1.14102,0.47898 -1.40204,0.59347 -2.23153,0.97915 -0.25537,0.11872 -0.48034,0.22081 -0.49997,0.22688 -0.52198,0.16159 -2.81055,1.34111 -3.25886,1.67956 -0.20705,0.15634 -0.47367,0.42554 -0.59246,0.59818 -0.33292,0.48395 -0.34887,0.59606 -0.50739,3.5802 -0.0395,0.74641 -0.0892,1.66252 -0.11007,2.03579 -0.0382,0.67628 -0.21332,3.15009 -0.28106,3.96438 -0.0198,0.23574 -0.085,1.02325 -0.14517,1.75003 -0.14694,1.77354 -0.43072,4.32566 -0.60778,5.46442 -0.14101,0.90732 -0.18061,1.13284 -0.49595,2.82153 -0.19731,1.05685 -0.46399,2.17966 -0.67853,2.85724 -0.0934,0.29462 -0.27166,0.88932 -0.39624,1.32148 -0.3559,1.23425 -0.97091,2.91094 -1.48049,4.03581 -0.36168,0.79841 -0.42336,0.96654 -0.39024,1.06359 0.0184,0.0545 0.007,0.081 -0.0313,0.0586 -0.0705,-0.0436 -1.20958,2.14041 -1.19329,2.28769 0.007,0.0491 -0.0191,0.0709 -0.0538,0.0491 -0.0348,-0.0218 -0.0634,-0.007 -0.0634,0.0354 0,0.0409 -0.14864,0.34029 -0.3304,0.6649 -0.1817,0.32468 -0.3317,0.62905 -0.33334,0.67649 0,0.047 -0.0266,0.0714 -0.0559,0.0538 -0.0293,-0.0177 -0.15218,0.13617 -0.27383,0.3424 -0.28529,0.48388 -0.37239,0.62183 -0.52369,0.82901 -0.0682,0.0935 -0.10325,0.20637 -0.0778,0.25087 0.0252,0.0443 0.0191,0.0566 -0.0136,0.0266 -0.0327,-0.03 -0.2444,0.23254 -0.46978,0.58332 -0.22531,0.35085 -0.47782,0.70599 -0.56117,0.78935 -0.0833,0.0833 -0.12922,0.18742 -0.10209,0.23131 0.0273,0.0436 0.0177,0.06 -0.0211,0.0361 -0.077,-0.0477 -0.85668,0.9358 -0.82458,1.04001 0.0109,0.0348 -0.0116,0.0443 -0.0491,0.0211 -0.0375,-0.0232 -0.0949,0 -0.12676,0.0579 -0.0518,0.0897 -0.35338,0.42581 -1.07191,1.19403 -0.12554,0.1342 -0.27023,0.27664 -0.32148,0.31657 -0.5046,0.39304 -0.83167,0.70975 -0.79466,0.76958 0.0266,0.0429 0.01,0.0504 -0.0429,0.0184 -0.0504,-0.0313 -0.15341,0.007 -0.24316,0.0863 -0.18088,0.16363 -2.05399,1.43959 -2.36981,1.61426 -1.02284,0.56588 -2.16379,1.16794 -2.60719,1.37574 -0.29462,0.13814 -0.72862,0.34219 -0.96429,0.45348 -0.39086,0.18456 -0.77756,0.35856 -1.3572,0.61072 -0.1179,0.0511 -0.71254,0.27582 -1.32148,0.49902 -1.82841,0.67021 -1.91932,0.70715 -1.88388,0.76447 0.0184,0.03 -0.008,0.0388 -0.06,0.0191 -0.0518,-0.0198 -0.65597,0.1391 -1.34302,0.35324 -1.22075,0.38042 -4.35966,1.20446 -5.42898,1.42514 -1.1175,0.2307 -5.0581,0.60595 -7.17758,0.68364 -1.87195,0.0686 -5.97353,0.0841 -6.96447,0.0266 z m 54.07298,-60.30045 c 0.91638,-0.14666 2.44008,-0.50187 2.82153,-0.65774 0.11783,-0.0484 0.26457,-0.0977 0.32611,-0.10993 0.0613,-0.0123 0.47939,-0.16984 0.92858,-0.3501 1.75187,-0.70313 3.62144,-1.75146 4.72108,-2.64726 0.55599,-0.45294 1.31392,-1.18123 1.56016,-1.49923 0.0586,-0.0761 0.21161,-0.27152 0.33926,-0.43413 0.12772,-0.16268 0.23213,-0.3287 0.23213,-0.36884 0,-0.0402 0.0286,-0.0838 0.0634,-0.0969 0.0348,-0.0129 0.19349,-0.29701 0.35276,-0.63095 1.06611,-2.23542 1.30329,-4.4114 0.82922,-7.60736 -0.24133,-1.62633 -0.33831,-2.08452 -0.75623,-3.57155 -0.80481,-2.86391 -1.62967,-4.51341 -2.8462,-5.69205 -0.54351,-0.52655 -1.9598,-1.46726 -2.64289,-1.75548 -1.66116,-0.70081 -3.39108,-0.97268 -5.4645,-0.85879 -1.45274,0.0797 -1.99912,0.23492 -4.96438,1.40987 -0.56969,0.22573 -1.27684,0.48116 -1.57147,0.56772 -0.92442,0.27152 -1.3362,0.55394 -1.60309,1.09951 -0.26348,0.53854 -0.30805,0.91522 -0.43223,3.65115 -0.46889,10.33333 -0.81156,16.18513 -0.99489,16.99083 -0.0801,0.35222 0.64609,1.15874 1.4569,1.61802 0.69407,0.39317 2.21851,0.89975 3.11506,1.03517 0.98767,0.14912 3.31945,0.10182 4.52985,-0.0919 z"
     id="path1653"
     inkscape:connector-curvature="0" />
  <path
     style="fill:#f9f9f9;stroke:#a5a5a5;stroke-width:2.5758543;stroke-miterlimit:4;stroke-dasharray:none;stroke-opacity:1"
     d="m 35.239091,179.41772 c 0,-4.62437 -0.01022,-4.64932 -2.351953,-5.76607 -2.979846,-1.42092 -4.54259,-3.80074 -4.966705,-7.56333 -0.586454,-5.20312 2.450298,-9.45272 7.645178,-10.69855 h 4.117656 c 5.19488,1.24583 8.231633,5.49543 7.645178,10.69855 -0.424115,3.76259 -1.986859,6.14241 -4.966636,7.56333 -2.341867,1.11675 -2.352022,1.1417 -2.352022,5.76607 1.307921,6.06914 -4.770696,7.84003 -4.770696,0 z"
     id="path1228-3"
     inkscape:connector-curvature="0"
     sodipodi:nodetypes="ccccccccc" />
  <path
     style="fill:#a4a9a6;stroke-width:0.68152809"
     d="m 0,0 v 320.3182 l 310.09398,0.68023 0.68153,-216.72463 73.9458,-0.35276 v 13.64255 l -55.46603,0.55375 54.77516,61.12427 h 28.96631 l 34.80182,-37.82433 c 0.49915,0 1.9277,0.60152 3.1734,1.33648 8.81427,5.20053 25.8552,4.18778 33.33361,-1.98073 4.32572,-3.56807 5.91627,-9.34845 3.72448,-13.53208 -1.22178,-2.33212 -4.90005,-5.81071 -7.55406,-7.14405 -5.18506,-2.60507 -7.37141,-2.75255 -38.33595,-2.58497 l -29.61526,0.16371 v -13.7424 h 25.23187 c 29.05709,0 31.1288,-0.26028 34.73136,-4.363351 1.14524,-1.304376 2.385,-3.815466 2.85785,-5.786377 l -0.007,-84.4854926 c -1.3499,-4.9313327 -3.86324,-7.9714931 -7.44358,-9.00094131 z M 12.949034,13.630834 H 148.57312 V 184.01285 H 93.369347 v 72.24198 h 24.439183 l 2.5038,-5.20592 c 5.96392,-12.39945 20.38355,-21.35105 34.39454,-21.35105 8.15565,0 17.99984,3.6211 24.65217,9.06753 4.15862,3.40471 10.37572,12.02004 11.12008,15.40894 l 0.45656,2.0805 h 26.47178 V 184.01285 H 160.84063 V 78.376002 h 56.56683 V 22.490699 H 410.96143 V 126.08297 H 386.42642 V 46.344182 H 241.26094 v 32.03182 h 55.20377 V 184.01285 h -55.20377 v 96.09546 h -49.54525 l -2.59962,5.28185 c -4.88036,9.91548 -14.27829,17.4771 -25.18199,20.2608 -4.83053,1.2333 -13.61972,1.25994 -18.58356,0.0573 -10.37552,-2.51409 -20.56266,-10.78545 -25.13135,-20.4059 l -2.46659,-5.194 H 69.515864 V 184.0129 h -56.56683 z m 449.383876,111.226196 5.23263,0.39536 c 6.75824,0.51115 12.80162,3.29021 13.11942,6.03254 0.26457,2.28312 -2.17639,4.30099 -6.90047,5.70385 -6.48222,1.92504 -16.53449,0.91768 -19.39561,-1.94345 -0.89389,-0.89389 -0.49159,-1.54372 3.46618,-5.59998 z"
     id="path1171-3"
     inkscape:connector-curvature="0"
     sodipodi:nodetypes="cccccccccccccccccsccccccccccccccccscccccccccccccccccccccccccccccccc" />
  <path
     inkscape:connector-curvature="0"
     id="path1167-7"
     d="m 369.91272,150.20456 c -1.99831,-5.25594 3.78691,-10.44966 14.791,-13.27862 6.69588,-1.72147 18.76308,-1.88463 26.10314,-0.35303 12.07573,2.51975 18.78878,8.915 15.6042,14.86542 l -23.94215,27.77997 h -7.87165 z"
     style="fill:#aa4400;stroke-width:0.68152809"
     sodipodi:nodetypes="ccscccc" />
  <path
     style="opacity:1;fill:none;stroke:#565656;stroke-width:5.1517086;stroke-miterlimit:4;stroke-dasharray:none;stroke-opacity:1"
     d="M 145.35099,305.70869 C 134.97548,303.1946 124.7884,294.92283 120.21971,285.30238 l -2.46665,-5.194 H 69.515932 V 184.01285 H 12.949034 V 13.630834 H 148.57312 V 184.01285 H 93.369415 v 72.24198 h 24.439865 l 2.50401,-5.20606 c 5.96391,-12.39945 20.38259,-21.34982 34.39358,-21.34982 8.15565,0 17.99977,3.62069 24.6521,9.06712 4.15862,3.40471 10.37599,12.01977 11.12036,15.40867 l 0.4569,2.08009 h 26.47123 V 184.01285 H 160.84063 V 78.37607 h 56.56683 V 22.490699 H 410.9615 V 126.08304 H 386.42642 V 46.34425 H 241.26094 v 32.03182 h 55.20377 v 105.63678 h -55.20377 v 96.09553 h -24.77211 -24.77212 l -2.59969,5.28184 c -4.88035,9.91549 -14.27862,17.47697 -25.18232,20.26068 -4.83054,1.23329 -13.61987,1.26062 -18.58371,0.0579 z"
     id="path1159"
     inkscape:connector-curvature="0"
     sodipodi:nodetypes="cccccccccccccsccccccccccccccccccccccccc" />
  <path
     inkscape:connector-curvature="0"
     id="path1167-7-5"
     d="m 310.09528,321 v -17.92855 l 145.16527,-0.0184 c 16.27789,0.37852 17.2535,0.63464 19.36481,5.08399 2.16378,4.55977 0.55169,9.77468 -3.73171,12.07191 C 417.44556,320.47311 363.54323,320.7355 310.09528,321 Z"
     style="fill:#575962;stroke-width:0.68152809"
     sodipodi:nodetypes="cccccc" />
  <circle
     style="opacity:1;fill:#a4a9a6;fill-opacity:1;fill-rule:evenodd;stroke:#565656;stroke-width:5.1517086;stroke-linecap:round;stroke-linejoin:miter;stroke-miterlimit:4;stroke-dasharray:none;stroke-dashoffset:0;stroke-opacity:1;paint-order:normal"
     id="path1322-9"
     cx="154.96419"
     cy="267.9404"
     r="16.083849" />
  <path
     style="fill:#666666;stroke-width:0.68152809"
     d="m 46.187958,300.29916 c -1.450979,-0.51519 -2.065647,-2.04905 -1.348868,-3.366 0.525618,-0.96575 1.567893,-1.70496 2.430709,-1.72392 0.490982,-0.0108 0.789791,0.23087 0.918228,0.7426 0.206663,0.82342 -0.847959,2.02534 -1.94405,2.2156 l -0.364957,0.0634 0.28629,0.19039 c 0.373834,0.2486 0.827655,0.16454 1.493758,-0.27666 1.127273,-0.74667 2.013022,-1.92173 2.393278,-3.17497 0.311605,-1.02699 0.144718,-1.54349 -0.680503,-2.10605 l -0.573177,-0.39075 -1.929052,1.89169 c -3.37925,3.31381 -5.897602,5.08325 -7.637807,5.36647 -1.275812,0.20765 -2.163007,-0.45908 -2.200828,-1.65391 l -0.01521,-0.47941 -0.677775,0.67777 c -0.372779,0.37278 -0.98278,0.84191 -1.355552,1.04253 -0.622438,0.33496 -0.750149,0.36476 -1.564101,0.36495 -0.761261,2.1e-4 -0.934359,-0.034 -1.226784,-0.24262 -0.529716,-0.37783 -0.697825,-0.78648 -0.7002,-1.70214 l -0.0022,-0.79797 -0.417086,0.3145 c -2.512816,1.89471 -4.52482,2.7716 -5.65013,2.46248 -0.861213,-0.23657 -1.478273,-1.32795 -1.316038,-2.32767 0.05214,-0.32158 0.03709,-0.37665 -0.08241,-0.30123 -0.08045,0.0507 -0.662424,0.43747 -1.293276,0.85936 -1.365838,0.91337 -1.869167,1.17764 -2.906003,1.52569 -1.936716,0.65013 -3.211112,0.10524 -3.370717,-1.44123 -0.138971,-1.3465 0.922821,-3.03325 3.16538,-5.02848 0.505105,-0.4494 0.825251,-0.77856 0.711438,-0.73145 -0.353876,0.14645 -1.642042,0.4768 -1.859209,0.4768 -0.125921,0 -0.841015,0.62161 -1.831834,1.59235 -3.190943,3.1263 -6.00319,5.04776 -7.8823806,5.3856 -2.1586474,0.3881 -3.0193807,-1.68889 -1.7466399,-4.21471 0.7292459,-1.44723 3.4913845,-4.91412 5.9607385,-7.4816 l 0.576655,-0.59956 H 12.002248 10.45689 l 0.25937,-0.4392 c 0.303253,-0.5135 0.378324,-0.54062 1.932746,-0.69853 1.401006,-0.14231 3.671676,-0.54764 5.33627,-0.95254 0.65927,-0.16036 1.219718,-0.27052 1.245439,-0.2448 0.0257,0.0257 -0.25426,0.35048 -0.622169,0.72168 l -0.66892,0.67493 h 2.317062 c 1.274388,0 2.317068,0.0258 2.317068,0.0575 0,0.0317 -0.105579,0.24243 -0.234616,0.46842 l -0.234616,0.41088 -2.556517,6.8e-4 -2.556525,6.8e-4 -1.457991,1.58096 c -3.341258,3.62305 -5.310145,6.35581 -5.121306,7.10821 0.258298,1.02916 2.960059,-0.30168 5.288306,-2.6049 l 0.99936,-0.98863 -0.34765,-0.34766 c -0.298629,-0.29862 -0.347604,-0.41897 -0.347268,-0.85338 6.6e-4,-0.85179 0.62641,-1.60724 1.804503,-2.17851 0.863745,-0.41884 1.374101,-0.51532 1.931605,-0.3652 0.961496,0.2589 1.136969,1.28859 0.334944,1.96549 -0.08866,0.0748 -0.395809,0.25363 -0.682563,0.39734 l -0.521363,0.2613 0.469225,-0.0676 c 0.769,-0.11071 2.256098,-0.65231 3.742364,-1.36295 l 1.396211,-0.66759 h 1.297509 c 0.713633,0 1.281874,0.0362 1.262754,0.0804 -0.0191,0.0442 -0.855909,0.86113 -1.859539,1.81542 -2.457606,2.3368 -3.660842,3.72877 -3.949559,4.56904 -0.113888,0.33146 -0.104298,0.38213 0.104433,0.55196 0.281202,0.22879 0.62539,0.17142 1.471349,-0.24525 1.326849,-0.65352 2.396733,-1.5748 3.652826,-3.14544 0.529551,-0.66218 1.547896,-1.86662 2.262975,-2.67655 l 1.300155,-1.4726 0.248558,0.3176 c 0.316019,0.40381 1.232216,0.933 1.617506,0.93428 0.16249,4e-4 0.279794,0.0453 0.260681,0.0993 -0.0191,0.0541 -0.373624,0.48811 -0.787804,0.96453 -1.171335,1.34732 -2.548868,3.22204 -2.929109,3.98628 -0.591481,1.18883 -0.319786,1.60052 0.834533,1.26449 1.07408,-0.31266 3.262951,-1.79523 3.685672,-2.49638 0.308144,-0.5111 2.351308,-2.56161 3.176468,-3.18787 2.114062,-1.6045 4.071374,-2.29023 5.251107,-1.83969 0.545292,0.20825 0.797762,0.46257 0.887233,0.89373 l 0.06593,0.3176 0.513653,-0.36547 0.513652,-0.36547 h 1.247792 1.247785 l -0.877202,0.91238 c -1.682642,1.75015 -3.955207,4.76399 -4.104383,5.4432 -0.07972,0.36296 0.07402,0.69513 0.364342,0.7873 0.378795,0.12022 1.330565,-0.25366 2.315188,-0.90948 0.652197,-0.4344 1.535737,-1.20235 2.702981,-2.34939 l 1.734068,-1.70403 0.04608,-0.54256 c 0.08801,-1.03651 0.759867,-1.94934 1.786596,-2.42739 1.353469,-0.63019 2.78036,0.0403 2.78036,1.30654 0,0.53529 -0.192915,0.92064 -0.671078,1.34048 -0.585083,0.51371 -1.467843,0.6538 -1.912193,0.30345 -0.07305,-0.0576 -0.160385,-0.0772 -0.194017,-0.0436 -0.03364,0.0337 0.256164,0.28667 0.644001,0.5623 1.422734,1.01109 1.758793,1.32873 2.081149,1.96711 0.282259,0.55895 0.312317,0.71381 0.307627,1.5848 l -0.0052,0.96529 0.422286,-0.39177 c 0.232264,-0.21547 0.962529,-0.91598 1.622811,-1.55669 1.196621,-1.16114 1.628287,-1.42663 1.969891,-1.21154 0.4782,0.30112 0.201897,0.86653 -0.967384,1.9796 -2.519895,2.39878 -5.554051,4.51072 -7.148856,4.976 -0.693052,0.20219 -1.995274,0.20183 -2.56571,-6.9e-4 z m -9.566633,-4.5906 c 1.530671,-1.05094 3.64068,-3.88069 3.554693,-4.76721 -0.02749,-0.2833 -0.07718,-0.33449 -0.350639,-0.36123 -0.603109,-0.059 -2.274963,1.01814 -3.084929,1.98753 -0.543375,0.65034 -1.141704,1.61309 -1.360789,2.18961 -0.217976,0.5736 -0.248312,1.28513 -0.05829,1.36744 0.25931,0.11233 0.766924,-0.0502 1.299959,-0.41614 z m -4.788798,-6.39949 c -1.356435,-0.40889 -1.797055,-2.4055 -0.741504,-3.36003 0.979447,-0.88573 2.606879,-0.52677 3.173008,0.69986 0.702432,1.52196 -0.790173,3.15494 -2.431504,2.66017 z"
     id="path2316"
     inkscape:connector-curvature="0" />
  <g
     aria-label="Expressa C60"
     transform="matrix(0.30341963,0,0,0.30341963,-18.795309,173.10154)"
     style="font-style:normal;font-weight:normal;font-size:40px;line-height:1.25;font-family:sans-serif;letter-spacing:0px;word-spacing:0px;fill:#666666;fill-opacity:1;stroke:none;stroke-width:2.24615693"
     id="flowRoot2318">
    <path
       d="M 82.005859,457.17861 V 428.5458 h 20.703121 v 3.37891 H 85.794922 v 8.76953 h 15.839848 v 3.35937 H 85.794922 v 9.7461 h 17.578128 v 3.3789 z"
       style="font-style:normal;font-variant:normal;font-weight:normal;font-stretch:normal;font-family:Arial;-inkscape-font-specification:Arial;fill:#666666;stroke-width:4.45616007"
       id="path9062"
       inkscape:connector-curvature="0" />
    <path
       d="m 105.85352,457.17861 7.57812,-10.78125 -7.01172,-9.96093 h 4.39453 l 3.1836,4.86328 q 0.89843,1.38672 1.44531,2.32422 0.85937,-1.28907 1.58203,-2.28516 l 3.49609,-4.90234 h 4.19922 l -7.16797,9.76562 7.71485,10.97656 h -4.31641 l -4.25781,-6.44531 -1.13281,-1.73828 -5.44922,8.18359 z"
       style="font-style:normal;font-variant:normal;font-weight:normal;font-stretch:normal;font-family:Arial;-inkscape-font-specification:Arial;fill:#666666;stroke-width:4.45616007"
       id="path9064"
       inkscape:connector-curvature="0" />
    <path
       d="m 128.19727,465.12783 v -28.6914 h 3.20312 v 2.69531 q 1.13281,-1.58203 2.55859,-2.36328 1.42579,-0.80078 3.45704,-0.80078 2.65625,0 4.6875,1.36718 2.03125,1.36719 3.0664,3.86719 1.03516,2.48047 1.03516,5.44922 0,3.18359 -1.15235,5.74219 -1.13281,2.53906 -3.32031,3.90625 -2.16797,1.34765 -4.57031,1.34765 -1.75781,0 -3.16406,-0.74218 -1.38672,-0.74219 -2.28516,-1.875 v 10.09765 z m 3.18359,-18.20312 q 0,4.0039 1.62109,5.91797 1.6211,1.91406 3.92578,1.91406 2.34375,0 4.00391,-1.97266 1.67969,-1.99218 1.67969,-6.15234 0,-3.96484 -1.64063,-5.9375 -1.62109,-1.97266 -3.88672,-1.97266 -2.24609,0 -3.98437,2.10938 -1.71875,2.08984 -1.71875,6.09375 z"
       style="font-style:normal;font-variant:normal;font-weight:normal;font-stretch:normal;font-family:Arial;-inkscape-font-specification:Arial;fill:#666666;stroke-width:4.45616007"
       id="path9066"
       inkscape:connector-curvature="0" />
    <path
       d="m 150.42383,457.17861 v -20.74218 h 3.16406 v 3.14453 q 1.21094,-2.20703 2.22656,-2.91016 1.03516,-0.70312 2.26563,-0.70312 1.77734,0 3.61328,1.13281 l -1.21094,3.26172 q -1.28906,-0.76172 -2.57812,-0.76172 -1.15235,0 -2.07032,0.70312 -0.91796,0.6836 -1.30859,1.91407 -0.58594,1.875 -0.58594,4.10156 v 10.85937 z"
       style="font-style:normal;font-variant:normal;font-weight:normal;font-stretch:normal;font-family:Arial;-inkscape-font-specification:Arial;fill:#666666;stroke-width:4.45616007"
       id="path9068"
       inkscape:connector-curvature="0" />
    <path
       d="m 178.02148,450.49893 3.63282,0.44922 q -0.85938,3.18359 -3.1836,4.9414 -2.32422,1.75781 -5.9375,1.75781 -4.55078,0 -7.22656,-2.79296 -2.65625,-2.8125 -2.65625,-7.8711 0,-5.23437 2.69531,-8.125 2.69532,-2.89062 6.99219,-2.89062 4.16016,0 6.79688,2.83203 2.63671,2.83203 2.63671,7.96875 0,0.3125 -0.0195,0.9375 H 166.2832 q 0.19532,3.41797 1.9336,5.23437 1.73828,1.81641 4.33593,1.81641 1.9336,0 3.30079,-1.01563 1.36718,-1.01562 2.16796,-3.24218 z m -11.54296,-5.6836 h 11.58203 q -0.23438,-2.61718 -1.32813,-3.92578 -1.67969,-2.03125 -4.35547,-2.03125 -2.42187,0 -4.08203,1.6211 -1.64062,1.62109 -1.8164,4.33593 z"
       style="font-style:normal;font-variant:normal;font-weight:normal;font-stretch:normal;font-family:Arial;-inkscape-font-specification:Arial;fill:#666666;stroke-width:4.45616007"
       id="path9070"
       inkscape:connector-curvature="0" />
    <path
       d="m 184.68164,450.98721 3.47656,-0.54688 q 0.29297,2.08985 1.6211,3.20313 1.34765,1.11328 3.75,1.11328 2.42187,0 3.59375,-0.97656 1.17187,-0.9961 1.17187,-2.32422 0,-1.19141 -1.03515,-1.875 -0.72266,-0.46875 -3.59375,-1.19141 -3.86719,-0.97656 -5.3711,-1.67969 -1.48437,-0.72265 -2.26562,-1.97265 -0.76172,-1.26953 -0.76172,-2.79297 0,-1.38672 0.625,-2.55859 0.64453,-1.19141 1.73828,-1.97266 0.82031,-0.60547 2.22656,-1.01563 1.42578,-0.42968 3.04688,-0.42968 2.4414,0 4.27734,0.70312 1.85547,0.70313 2.73438,1.91406 0.8789,1.19141 1.21093,3.20313 l -3.4375,0.46875 q -0.23437,-1.60156 -1.36718,-2.5 -1.11329,-0.89844 -3.16407,-0.89844 -2.42187,0 -3.45703,0.80078 -1.03515,0.80078 -1.03515,1.875 0,0.6836 0.42968,1.23047 0.42969,0.56641 1.34766,0.9375 0.52734,0.19531 3.10547,0.89844 3.73047,0.99609 5.19531,1.64062 1.48438,0.625 2.32422,1.83594 0.83984,1.21094 0.83984,3.00781 0,1.75782 -1.03515,3.32032 -1.01563,1.54297 -2.94922,2.40234 -1.9336,0.83984 -4.375,0.83984 -4.04297,0 -6.17188,-1.67968 -2.10937,-1.67969 -2.69531,-4.98047 z"
       style="font-style:normal;font-variant:normal;font-weight:normal;font-stretch:normal;font-family:Arial;-inkscape-font-specification:Arial;fill:#666666;stroke-width:4.45616007"
       id="path9072"
       inkscape:connector-curvature="0" />
    <path
       d="m 204.68164,450.98721 3.47656,-0.54688 q 0.29297,2.08985 1.6211,3.20313 1.34765,1.11328 3.75,1.11328 2.42187,0 3.59375,-0.97656 1.17187,-0.9961 1.17187,-2.32422 0,-1.19141 -1.03515,-1.875 -0.72266,-0.46875 -3.59375,-1.19141 -3.86719,-0.97656 -5.3711,-1.67969 -1.48437,-0.72265 -2.26562,-1.97265 -0.76172,-1.26953 -0.76172,-2.79297 0,-1.38672 0.625,-2.55859 0.64453,-1.19141 1.73828,-1.97266 0.82031,-0.60547 2.22656,-1.01563 1.42578,-0.42968 3.04688,-0.42968 2.4414,0 4.27734,0.70312 1.85547,0.70313 2.73438,1.91406 0.8789,1.19141 1.21093,3.20313 l -3.4375,0.46875 q -0.23437,-1.60156 -1.36718,-2.5 -1.11329,-0.89844 -3.16407,-0.89844 -2.42187,0 -3.45703,0.80078 -1.03515,0.80078 -1.03515,1.875 0,0.6836 0.42968,1.23047 0.42969,0.56641 1.34766,0.9375 0.52734,0.19531 3.10547,0.89844 3.73047,0.99609 5.19531,1.64062 1.48438,0.625 2.32422,1.83594 0.83984,1.21094 0.83984,3.00781 0,1.75782 -1.03515,3.32032 -1.01563,1.54297 -2.94922,2.40234 -1.9336,0.83984 -4.375,0.83984 -4.04297,0 -6.17188,-1.67968 -2.10937,-1.67969 -2.69531,-4.98047 z"
       style="font-style:normal;font-variant:normal;font-weight:normal;font-stretch:normal;font-family:Arial;-inkscape-font-specification:Arial;fill:#666666;stroke-width:4.45616007"
       id="path9074"
       inkscape:connector-curvature="0" />
    <path
       d="m 239.62305,454.62002 q -1.95313,1.66016 -3.76953,2.34375 -1.79688,0.68359 -3.86719,0.68359 -3.41797,0 -5.25391,-1.66015 -1.83594,-1.67969 -1.83594,-4.27735 0,-1.52343 0.6836,-2.77343 0.70312,-1.26953 1.8164,-2.03125 1.13282,-0.76172 2.53907,-1.15235 1.03515,-0.27343 3.125,-0.52734 4.25781,-0.50781 6.26953,-1.21094 0.0195,-0.72265 0.0195,-0.91797 0,-2.14843 -0.99609,-3.02734 -1.34766,-1.19141 -4.00391,-1.19141 -2.48047,0 -3.67188,0.87891 -1.17187,0.85937 -1.73828,3.06641 l -3.4375,-0.46875 q 0.46875,-2.20704 1.54297,-3.55469 1.07422,-1.36719 3.10547,-2.08985 2.03125,-0.74218 4.70703,-0.74218 2.65625,0 4.31641,0.625 1.66015,0.625 2.4414,1.58203 0.78125,0.9375 1.09375,2.38281 0.17579,0.89844 0.17579,3.24219 v 4.6875 q 0,4.90234 0.21484,6.21094 0.23437,1.28906 0.89844,2.48046 h -3.67188 q -0.54687,-1.09375 -0.70312,-2.55859 z m -0.29297,-7.85156 q -1.91406,0.78125 -5.74219,1.32812 -2.16797,0.3125 -3.06641,0.70313 -0.89843,0.39062 -1.38671,1.15234 -0.48829,0.74219 -0.48829,1.66016 0,1.40625 1.05469,2.34375 1.07422,0.9375 3.125,0.9375 2.03125,0 3.61328,-0.87891 1.58203,-0.89844 2.32422,-2.4414 0.56641,-1.19141 0.56641,-3.51563 z"
       style="font-style:normal;font-variant:normal;font-weight:normal;font-stretch:normal;font-family:Arial;-inkscape-font-specification:Arial;fill:#666666;stroke-width:4.45616007"
       id="path9076"
       inkscape:connector-curvature="0" />
    <path
       d="m 280.32617,447.13955 3.78906,0.95703 q -1.1914,4.66797 -4.29687,7.12891 -3.08594,2.44141 -7.55859,2.44141 -4.62891,0 -7.53907,-1.875 -2.89062,-1.89454 -4.41406,-5.46875 -1.50391,-3.57422 -1.50391,-7.67579 0,-4.47265 1.69922,-7.79296 1.71875,-3.33985 4.86328,-5.0586 3.16407,-1.73828 6.95313,-1.73828 4.29687,0 7.22656,2.1875 2.92969,2.1875 4.08203,6.15234 l -3.73047,0.87891 q -0.99609,-3.125 -2.89062,-4.55078 -1.89453,-1.42578 -4.76563,-1.42578 -3.30078,0 -5.52734,1.58203 -2.20703,1.58203 -3.10547,4.25781 -0.89844,2.65625 -0.89844,5.48828 0,3.65235 1.05469,6.38672 1.07422,2.71485 3.32031,4.0625 2.2461,1.34766 4.86329,1.34766 3.18359,0 5.39062,-1.83594 2.20703,-1.83594 2.98828,-5.44922 z"
       style="font-style:normal;font-variant:normal;font-weight:normal;font-stretch:normal;font-family:Arial;-inkscape-font-specification:Arial;fill:#666666;stroke-width:4.45616007"
       id="path9078"
       inkscape:connector-curvature="0" />
    <path
       d="m 305.61914,435.55752 -3.49609,0.27344 q -0.46875,-2.07031 -1.32813,-3.00781 -1.42578,-1.50391 -3.51562,-1.50391 -1.67969,0 -2.94922,0.9375 -1.66016,1.21094 -2.61719,3.53516 -0.95703,2.32421 -0.99609,6.62109 1.26953,-1.93359 3.10547,-2.87109 1.83593,-0.9375 3.84765,-0.9375 3.51563,0 5.97656,2.59765 2.48047,2.57813 2.48047,6.67969 0,2.69531 -1.17187,5.01953 -1.15235,2.30469 -3.1836,3.53516 -2.03125,1.23047 -4.60937,1.23047 -4.39453,0 -7.16797,-3.22266 -2.77344,-3.24219 -2.77344,-10.66406 0,-8.30078 3.06641,-12.07032 2.67578,-3.28125 7.20703,-3.28125 3.37891,0 5.52734,1.89454 2.16797,1.89453 2.59766,5.23437 z m -14.35547,12.34375 q 0,1.81641 0.76172,3.47656 0.78125,1.66016 2.16797,2.53907 1.38672,0.85937 2.91016,0.85937 2.22656,0 3.82812,-1.79687 1.60156,-1.79688 1.60156,-4.88282 0,-2.96875 -1.58203,-4.66797 -1.58203,-1.71875 -3.98437,-1.71875 -2.38282,0 -4.04297,1.71875 -1.66016,1.69922 -1.66016,4.47266 z"
       style="font-style:normal;font-variant:normal;font-weight:normal;font-stretch:normal;font-family:Arial;-inkscape-font-specification:Arial;fill:#666666;stroke-width:4.45616007"
       id="path9080"
       inkscape:connector-curvature="0" />
    <path
       d="m 309.64258,443.05752 q 0,-5.07812 1.03515,-8.16406 1.05469,-3.10547 3.10547,-4.78516 2.07032,-1.67969 5.19532,-1.67969 2.30468,0 4.04296,0.9375 1.73829,0.91797 2.8711,2.67579 1.13281,1.73828 1.77734,4.25781 0.64453,2.5 0.64453,6.75781 0,5.03906 -1.03515,8.14453 -1.03516,3.08594 -3.10547,4.78516 -2.05078,1.67969 -5.19531,1.67969 -4.14063,0 -6.50391,-2.96875 -2.83203,-3.57422 -2.83203,-11.64063 z m 3.61328,0 q 0,7.05078 1.64062,9.39453 1.66016,2.32422 4.08204,2.32422 2.42187,0 4.0625,-2.34375 1.66015,-2.34375 1.66015,-9.375 0,-7.07031 -1.66015,-9.39453 -1.64063,-2.32422 -4.10157,-2.32422 -2.42187,0 -3.86718,2.05078 -1.81641,2.61719 -1.81641,9.66797 z"
       style="font-style:normal;font-variant:normal;font-weight:normal;font-stretch:normal;font-family:Arial;-inkscape-font-specification:Arial;fill:#666666;stroke-width:4.45616007"
       id="path9082"
       inkscape:connector-curvature="0" />
  </g>
</svg>
