<?xml version="1.0" encoding="UTF-8" standalone="no"?>
<!-- Created with Inkscape (http://www.inkscape.org/) -->

<svg
   xmlns:dc="http://purl.org/dc/elements/1.1/"
   xmlns:cc="http://creativecommons.org/ns#"
   xmlns:rdf="http://www.w3.org/1999/02/22-rdf-syntax-ns#"
   xmlns:svg="http://www.w3.org/2000/svg"
   xmlns="http://www.w3.org/2000/svg"
   xmlns:sodipodi="http://sodipodi.sourceforge.net/DTD/sodipodi-0.dtd"
   xmlns:inkscape="http://www.inkscape.org/namespaces/inkscape"
   version="1.1"
   id="svg1032"
   width="490"
   height="321"
   viewBox="0 0 489.99999 321"
   sodipodi:docname="coffee-back.svg"
   inkscape:version="0.92.4 (5da689c313, 2019-01-14)">
  <metadata
     id="metadata1038">
    <rdf:RDF>
      <cc:Work
         rdf:about="">
        <dc:format>image/svg+xml</dc:format>
        <dc:type
           rdf:resource="http://purl.org/dc/dcmitype/StillImage" />
        <dc:title />
      </cc:Work>
    </rdf:RDF>
  </metadata>
  <defs
     id="defs1036" />
  <sodipodi:namedview
     pagecolor="#ffffff"
     bordercolor="#666666"
     borderopacity="1"
     objecttolerance="10"
     gridtolerance="10"
     guidetolerance="10"
     inkscape:pageopacity="0"
     inkscape:pageshadow="2"
     inkscape:window-width="1270"
     inkscape:window-height="698"
     id="namedview1034"
     showgrid="false"
     inkscape:zoom="1"
     inkscape:cx="368.45302"
     inkscape:cy="89.379058"
     inkscape:window-x="1280"
     inkscape:window-y="29"
     inkscape:window-maximized="0"
     inkscape:current-layer="svg1032"
     showguides="false"
     inkscape:lockguides="true"
     fit-margin-top="0"
     fit-margin-left="0"
     fit-margin-right="0"
     fit-margin-bottom="0">
    <inkscape:grid
       type="xygrid"
       id="grid1462"
       originx="-1652.6426"
       originy="1054.4238" />
  </sodipodi:namedview>
  <path
     style="opacity:1;fill:#006edd;fill-opacity:1;stroke:none;stroke-width:5.1517086;stroke-miterlimit:4;stroke-dasharray:none;stroke-opacity:1"
     d="M 145.35099,305.70869 C 134.97548,303.1946 124.7884,294.92283 120.21971,285.30238 l -2.46665,-5.194 H 69.515932 V 184.01285 H 12.949034 V 158.11479 H 148.57312 v 25.89806 H 93.369415 v 72.24198 h 24.439865 l 2.50401,-5.20606 c 5.96391,-12.39945 20.38259,-21.34982 34.39358,-21.34982 8.15565,0 17.99977,3.62069 24.6521,9.06712 4.15862,3.40471 10.37599,12.01977 11.12036,15.40867 l 0.4569,2.08009 h 26.47123 V 184.01285 H 160.84063 V 78.37607 h 135.62408 v 105.63678 h -55.20377 v 96.09553 h -24.77211 -24.77212 l -2.59969,5.28184 c -4.88035,9.91549 -14.27862,17.47697 -25.18232,20.26068 -4.83054,1.23329 -13.61987,1.26062 -18.58371,0.0579 z"
     id="path1159-6"
     inkscape:connector-curvature="0"
     sodipodi:nodetypes="cccccccccccccsccccccccccccccccc" />
  <path
     style="opacity:1;fill:#000000;fill-opacity:1;fill-rule:evenodd;stroke:#020202;stroke-width:2.04458427;stroke-linecap:round;stroke-linejoin:miter;stroke-miterlimit:4;stroke-dasharray:none;stroke-dashoffset:0;stroke-opacity:1;paint-order:normal"
     d="m 153.64335,230.2929 v 20.44585 h 2.72611 V 230.2929 Z m -24.31004,10.06985 -1.92743,1.92743 14.45712,14.45719 1.92879,-1.92743 z m 51.34619,0 -14.45719,14.45719 1.9275,1.92743 14.45712,-14.45719 z m -63.34217,26.23747 v 2.72611 h 20.44584 v -2.72611 z m 54.89231,0 v 2.72611 h 20.44585 v -2.72611 z m -30.36664,12.57767 -14.45712,14.45719 1.92743,1.92743 14.45848,-14.45719 z m 26.28681,0 -1.92879,1.92743 14.45848,14.45719 1.92743,-1.92743 z m -14.50646,6.00863 v 20.44584 h 2.72611 v -20.44584 z"
     id="rect1445"
     inkscape:connector-curvature="0" />
  <path
     style="fill:#a5a5a5;fill-opacity:1;stroke-width:0.68152809"
     d="m 161.83532,164.09622 v -4.07404 h 26.32565 20.87337 l -2.78977,-3.0266 c -3.24864,-3.52432 -3.86413,-5.4037 -3.2072,-9.7926 0.26321,-1.75821 0.43645,-3.88676 0.38506,-4.73015 -0.11804,-1.93717 -0.19137,-8.72417 -0.12335,-11.41559 0.0286,-1.12452 0.0286,-3.88471 0,-6.13376 -0.0286,-2.24904 0.0136,-5.00923 0.0936,-6.13375 0.0799,-1.12452 -0.0729,-3.46496 -0.33967,-5.20101 -0.6542,-4.25737 0.51223,-7.45606 3.8032,-10.42915 l 2.69006,-2.43033 h -47.71092 v -4.089172 h 38.43457 c 30.99753,0 33.24644,0.08158 37.37166,1.355764 4.98538,1.539777 9.13643,4.285658 11.51019,7.613898 1.28509,1.80182 1.60077,3.0559 1.51626,6.02396 -0.12178,4.27863 -0.13971,6.98607 -0.12369,18.74202 0.007,4.25035 -0.0484,10.51673 -0.10741,12.43789 -0.0314,1.03081 0.14053,3.18062 0.38274,4.7773 0.60384,3.98135 0,5.86782 -2.91544,9.09377 -4.32859,4.79128 -13.77259,8.30503 -21.32372,7.93374 z m 73.29146,-5.11323 c 2.23412,-0.5716 5.28872,-1.88075 6.78809,-2.90924 2.98645,-2.04861 5.4388,-6.21411 4.8152,-8.17895 -0.36551,-1.15165 -0.75336,-1.07327 -4.99111,1.00804 -9.18624,4.51165 -20.42444,4.50518 -29.65717,-0.017 l -4.6166,-2.26125 -0.39501,1.57399 c -0.541,2.15547 1.59034,5.59071 4.89016,7.88201 5.32696,3.69893 15.21232,4.9374 23.16644,2.90243 z m 3.70145,-13.65967 c 2.28461,-1.02522 4.04514,-2.18988 3.91244,-2.58803 -0.13276,-0.39822 -1.63382,-1.41847 -3.3358,-2.26724 -2.76046,-1.37655 -3.60127,-1.4813 -7.78905,-0.96995 -2.58204,0.31527 -6.78891,0.31391 -9.34866,-0.007 -4.12597,-0.51094 -5.01141,-0.40367 -7.80329,0.94521 -1.73204,0.83678 -3.25137,1.85846 -3.37622,2.27024 -0.2324,0.76618 6.29241,3.97345 9.35908,4.60045 0.9371,0.19165 4.52174,0.24222 7.96577,0.11246 5.01918,-0.18913 7.08639,-0.60588 10.41573,-2.1 z m -28.75953,-7.65076 1.54863,-1.19193 -2.04008,-1.20514 c -2.02987,-1.19908 -2.0422,-1.19663 -2.46475,0.48681 -0.41975,1.67234 0.0232,3.14675 0.93655,3.11738 0.25905,-0.008 1.16787,-0.55156 2.01965,-1.20712 z m 36.55941,0.10393 c 0.23601,-0.61508 0.24678,-1.69278 0.0239,-2.39496 -0.38901,-1.22552 -0.48565,-1.22913 -2.41608,-0.0888 l -2.01085,1.1879 1.5487,1.19193 c 1.93364,1.48825 2.31775,1.50222 2.85431,0.10393 z m -6.23401,-5.38557 c 2.96329,-1.45077 2.94509,-2.18655 -0.0981,-3.96384 -1.88933,-1.10346 -3.61755,-1.27595 -12.55354,-1.25299 -5.69941,0.015 -10.8226,0.0525 -11.38486,0.0842 -0.56226,0.0314 -2.22907,0.78792 -3.70397,1.68072 l -2.68174,1.62326 3.17858,1.61536 c 2.96812,1.50842 3.89009,1.61059 13.92689,1.54311 8.96543,-0.0606 11.1744,-0.28092 13.31678,-1.32986 z m -30.59175,-9.22932 c -1.93226,-1.27262 -1.9735,-1.27221 -2.56241,0.0266 -0.32917,0.72576 -0.41137,1.80734 -0.18258,2.40341 0.379,0.9878 0.60588,0.98542 2.56234,-0.0266 l 2.14648,-1.11001 z m 36.82576,2.34738 c 0.23601,-0.61507 0.24678,-1.69277 0.0239,-2.39495 -0.38901,-1.22553 -0.48565,-1.22914 -2.41608,-0.0888 l -2.01085,1.18791 1.5487,1.19192 c 1.93364,1.48825 2.31775,1.50223 2.85431,0.10393 z m -6.36343,-5.43627 c 1.20603,-0.70566 2.22403,-1.58967 2.26227,-1.96451 0.11109,-1.08983 -5.71291,-3.66628 -10.15838,-4.49386 -6.78237,-1.26273 -16.06669,0.36496 -20.7357,3.63527 -1.4627,1.02448 -1.43632,1.0636 1.79044,2.65306 3.04936,1.50202 4.01148,1.60765 13.96185,1.53309 9.13991,-0.0684 11.00423,-0.26572 12.87952,-1.36305 z m -22.91202,-10.1074 c 4.62233,-1.20365 13.5436,-1.36258 18.08769,-0.3223 1.68678,0.38615 4.81922,1.57542 6.96092,2.64269 3.56235,1.77525 3.9267,1.83781 4.27693,0.73428 0.45853,-1.44477 -0.66878,-4.64407 -2.25504,-6.39982 -2.76652,-3.06204 -11.17106,-5.89092 -17.50191,-5.89092 -6.92385,0 -15.22568,3.02544 -18.00809,6.56264 -1.67874,2.13427 -2.41601,4.57196 -1.83821,6.07779 0.3473,0.90494 0.82492,0.81191 3.31079,-0.64458 1.59771,-0.93615 4.73281,-2.17803 6.96692,-2.75978 z"
     id="path1228-3-5-2"
     inkscape:connector-curvature="0"
     sodipodi:nodetypes="ccccccccsscccccsccccccccccccccccccccccccccccccccccccccccccccccccccccccccccccccccccccccccccccscccc" />
</svg>
