<?xml version="1.0" encoding="UTF-8" standalone="no"?>
<!-- Created with Inkscape (http://www.inkscape.org/) -->

<svg
   xmlns:dc="http://purl.org/dc/elements/1.1/"
   xmlns:cc="http://creativecommons.org/ns#"
   xmlns:rdf="http://www.w3.org/1999/02/22-rdf-syntax-ns#"
   xmlns:svg="http://www.w3.org/2000/svg"
   xmlns="http://www.w3.org/2000/svg"
   xmlns:xlink="http://www.w3.org/1999/xlink"
   xmlns:sodipodi="http://sodipodi.sourceforge.net/DTD/sodipodi-0.dtd"
   xmlns:inkscape="http://www.inkscape.org/namespaces/inkscape"
   version="1.1"
   id="svg1032"
   width="490"
   height="321"
   viewBox="0 0 489.99999 321"
   sodipodi:docname="coffee-heat.svg"
   inkscape:version="0.92.4 (5da689c313, 2019-01-14)">
  <metadata
     id="metadata1038">
    <rdf:RDF>
      <cc:Work
         rdf:about="">
        <dc:format>image/svg+xml</dc:format>
        <dc:type
           rdf:resource="http://purl.org/dc/dcmitype/StillImage" />
        <dc:title></dc:title>
      </cc:Work>
    </rdf:RDF>
  </metadata>
  <defs
     id="defs1036">
    <linearGradient
       inkscape:collect="always"
       id="linearGradient2301">
      <stop
         style="stop-color:#ff2d2d;stop-opacity:1;"
         offset="0"
         id="stop2297" />
      <stop
         style="stop-color:#ff2d2d;stop-opacity:0;"
         offset="1"
         id="stop2299" />
    </linearGradient>
    <linearGradient
       inkscape:collect="always"
       xlink:href="#linearGradient2301"
       id="linearGradient2303"
       x1="-454.39526"
       y1="148.99974"
       x2="-454.39526"
       y2="233.21136"
       gradientUnits="userSpaceOnUse" />
  </defs>
  <sodipodi:namedview
     pagecolor="#ffffff"
     bordercolor="#666666"
     borderopacity="1"
     objecttolerance="10"
     gridtolerance="10"
     guidetolerance="10"
     inkscape:pageopacity="0"
     inkscape:pageshadow="2"
     inkscape:window-width="1270"
     inkscape:window-height="698"
     id="namedview1034"
     showgrid="false"
     inkscape:zoom="0.5"
     inkscape:cx="223.62071"
     inkscape:cy="224.21322"
     inkscape:window-x="1280"
     inkscape:window-y="29"
     inkscape:window-maximized="0"
     inkscape:current-layer="svg1032"
     showguides="false"
     inkscape:lockguides="true"
     fit-margin-top="0"
     fit-margin-left="0"
     fit-margin-right="0"
     fit-margin-bottom="0">
    <inkscape:grid
       type="xygrid"
       id="grid1462"
       originx="-1652.6426"
       originy="1054.4238" />
  </sodipodi:namedview>
  <path
     style="opacity:1;fill:#000000;fill-opacity:1;fill-rule:evenodd;stroke:#020202;stroke-width:2.04458427;stroke-linecap:round;stroke-linejoin:miter;stroke-miterlimit:4;stroke-dasharray:none;stroke-dashoffset:0;stroke-opacity:1;paint-order:normal"
     d="m 153.64335,230.2929 v 20.44585 h 2.72611 V 230.2929 Z m -24.31004,10.06985 -1.92743,1.92743 14.45712,14.45719 1.92879,-1.92743 z m 51.34619,0 -14.45719,14.45719 1.9275,1.92743 14.45712,-14.45719 z m -63.34217,26.23747 v 2.72611 h 20.44584 v -2.72611 z m 54.89231,0 v 2.72611 h 20.44585 v -2.72611 z m -30.36664,12.57767 -14.45712,14.45719 1.92743,1.92743 14.45848,-14.45719 z m 26.28681,0 -1.92879,1.92743 14.45848,14.45719 1.92743,-1.92743 z m -14.50646,6.00863 v 20.44584 h 2.72611 v -20.44584 z"
     id="rect1445"
     inkscape:connector-curvature="0" />
  <path
     style="fill:#a5a5a5;fill-opacity:1;stroke-width:0.68152809"
     d="m 161.83532,164.09622 v -4.07404 h 26.32565 20.87337 l -2.78977,-3.0266 c -3.24864,-3.52432 -3.86413,-5.4037 -3.2072,-9.7926 0.26321,-1.75821 0.43645,-3.88676 0.38506,-4.73015 -0.11804,-1.93717 -0.19137,-8.72417 -0.12335,-11.41559 0.0286,-1.12452 0.0286,-3.88471 0,-6.13376 -0.0286,-2.24904 0.0136,-5.00923 0.0936,-6.13375 0.0799,-1.12452 -0.0729,-3.46496 -0.33967,-5.20101 -0.6542,-4.25737 0.51223,-7.45606 3.8032,-10.42915 l 2.69006,-2.43033 h -47.71092 v -4.089172 h 38.43457 c 30.99753,0 33.24644,0.08158 37.37166,1.355764 4.98538,1.539777 9.13643,4.285658 11.51019,7.613898 1.28509,1.80182 1.60077,3.0559 1.51626,6.02396 -0.12178,4.27863 -0.13971,6.98607 -0.12369,18.74202 0.007,4.25035 -0.0484,10.51673 -0.10741,12.43789 -0.0314,1.03081 0.14053,3.18062 0.38274,4.7773 0.60384,3.98135 0,5.86782 -2.91544,9.09377 -4.32859,4.79128 -13.77259,8.30503 -21.32372,7.93374 z m 73.29146,-5.11323 c 2.23412,-0.5716 5.28872,-1.88075 6.78809,-2.90924 2.98645,-2.04861 5.4388,-6.21411 4.8152,-8.17895 -0.36551,-1.15165 -0.75336,-1.07327 -4.99111,1.00804 -9.18624,4.51165 -20.42444,4.50518 -29.65717,-0.017 l -4.6166,-2.26125 -0.39501,1.57399 c -0.541,2.15547 1.59034,5.59071 4.89016,7.88201 5.32696,3.69893 15.21232,4.9374 23.16644,2.90243 z m 3.70145,-13.65967 c 2.28461,-1.02522 4.04514,-2.18988 3.91244,-2.58803 -0.13276,-0.39822 -1.63382,-1.41847 -3.3358,-2.26724 -2.76046,-1.37655 -3.60127,-1.4813 -7.78905,-0.96995 -2.58204,0.31527 -6.78891,0.31391 -9.34866,-0.007 -4.12597,-0.51094 -5.01141,-0.40367 -7.80329,0.94521 -1.73204,0.83678 -3.25137,1.85846 -3.37622,2.27024 -0.2324,0.76618 6.29241,3.97345 9.35908,4.60045 0.9371,0.19165 4.52174,0.24222 7.96577,0.11246 5.01918,-0.18913 7.08639,-0.60588 10.41573,-2.1 z m -28.75953,-7.65076 1.54863,-1.19193 -2.04008,-1.20514 c -2.02987,-1.19908 -2.0422,-1.19663 -2.46475,0.48681 -0.41975,1.67234 0.0232,3.14675 0.93655,3.11738 0.25905,-0.008 1.16787,-0.55156 2.01965,-1.20712 z m 36.55941,0.10393 c 0.23601,-0.61508 0.24678,-1.69278 0.0239,-2.39496 -0.38901,-1.22552 -0.48565,-1.22913 -2.41608,-0.0888 l -2.01085,1.1879 1.5487,1.19193 c 1.93364,1.48825 2.31775,1.50222 2.85431,0.10393 z m -6.23401,-5.38557 c 2.96329,-1.45077 2.94509,-2.18655 -0.0981,-3.96384 -1.88933,-1.10346 -3.61755,-1.27595 -12.55354,-1.25299 -5.69941,0.015 -10.8226,0.0525 -11.38486,0.0842 -0.56226,0.0314 -2.22907,0.78792 -3.70397,1.68072 l -2.68174,1.62326 3.17858,1.61536 c 2.96812,1.50842 3.89009,1.61059 13.92689,1.54311 8.96543,-0.0606 11.1744,-0.28092 13.31678,-1.32986 z m -30.59175,-9.22932 c -1.93226,-1.27262 -1.9735,-1.27221 -2.56241,0.0266 -0.32917,0.72576 -0.41137,1.80734 -0.18258,2.40341 0.379,0.9878 0.60588,0.98542 2.56234,-0.0266 l 2.14648,-1.11001 z m 36.82576,2.34738 c 0.23601,-0.61507 0.24678,-1.69277 0.0239,-2.39495 -0.38901,-1.22553 -0.48565,-1.22914 -2.41608,-0.0888 l -2.01085,1.18791 1.5487,1.19192 c 1.93364,1.48825 2.31775,1.50223 2.85431,0.10393 z m -6.36343,-5.43627 c 1.20603,-0.70566 2.22403,-1.58967 2.26227,-1.96451 0.11109,-1.08983 -5.71291,-3.66628 -10.15838,-4.49386 -6.78237,-1.26273 -16.06669,0.36496 -20.7357,3.63527 -1.4627,1.02448 -1.43632,1.0636 1.79044,2.65306 3.04936,1.50202 4.01148,1.60765 13.96185,1.53309 9.13991,-0.0684 11.00423,-0.26572 12.87952,-1.36305 z m -22.91202,-10.1074 c 4.62233,-1.20365 13.5436,-1.36258 18.08769,-0.3223 1.68678,0.38615 4.81922,1.57542 6.96092,2.64269 3.56235,1.77525 3.9267,1.83781 4.27693,0.73428 0.45853,-1.44477 -0.66878,-4.64407 -2.25504,-6.39982 -2.76652,-3.06204 -11.17106,-5.89092 -17.50191,-5.89092 -6.92385,0 -15.22568,3.02544 -18.00809,6.56264 -1.67874,2.13427 -2.41601,4.57196 -1.83821,6.07779 0.3473,0.90494 0.82492,0.81191 3.31079,-0.64458 1.59771,-0.93615 4.73281,-2.17803 6.96692,-2.75978 z"
     id="path1228-3-5-2"
     inkscape:connector-curvature="0"
     sodipodi:nodetypes="ccccccccsscccccsccccccccccccccccccccccccccccccccccccccccccccccccccccccccccccccccccccccccccccscccc" />
  <g
     id="g2295"
     transform="matrix(0.68152808,0,0,0.68152808,537.37739,10.852449)">
    <rect
       y="99.076965"
       x="-552.48901"
       height="154.99989"
       width="199"
       id="rect1341-3"
       style="opacity:1;fill:url(#linearGradient2303);fill-opacity:1;fill-rule:evenodd;stroke:none;stroke-width:7.55905533;stroke-linecap:round;stroke-linejoin:miter;stroke-miterlimit:4;stroke-dasharray:none;stroke-dashoffset:0;stroke-opacity:1;paint-order:normal" />
    <path
       sodipodi:nodetypes="ccccccccsscccccsccccccccccccccccccccccccccccccccccccccccccccccccccccccccccccccccccccccccccccscccc"
       inkscape:connector-curvature="0"
       id="path1228-3-5-0"
       d="m -551.0295,224.8533 v -5.9778 h 38.6274 30.6273 l -4.0934,-4.4409 c -4.7667,-5.1712 -5.6698,-7.9288 -4.7059,-14.3686 0.3862,-2.5798 0.6404,-5.703 0.565,-6.9405 -0.1732,-2.8424 -0.2808,-12.8009 -0.181,-16.75 0.042,-1.65 0.042,-5.7 0,-9 -0.042,-3.3 0.02,-7.35 0.1373,-9 0.1173,-1.65 -0.107,-5.0841 -0.4984,-7.6314 -0.9599,-6.2468 0.7516,-10.9402 5.5804,-15.3026 l 3.9471,-3.566 h -70.0058 v -6 h 56.3947 c 45.4824,0 48.7822,0.1197 54.8351,1.9893 7.315,2.2593 13.4058,6.2883 16.8888,11.1718 1.8856,2.6438 2.3488,4.4839 2.2248,8.8389 -0.1787,6.278 -0.205,10.2506 -0.1815,27.5 0.01,6.2365 -0.071,15.4311 -0.1576,18.25 -0.046,1.5125 0.2062,4.6669 0.5616,7.0097 0.886,5.8418 0,8.6098 -4.2778,13.3432 -6.3513,7.0302 -20.2084,12.1859 -31.2881,11.6411 z m 107.5399,-7.5026 c 3.2781,-0.8387 7.7601,-2.7596 9.9601,-4.2687 4.382,-3.0059 7.9803,-9.1179 7.0653,-12.0009 -0.5363,-1.6898 -1.1054,-1.5748 -7.3234,1.4791 -13.4789,6.6199 -29.9686,6.6104 -43.5157,-0.025 l -6.7739,-3.3179 -0.5796,2.3095 c -0.7938,3.1627 2.3335,8.2032 7.1753,11.5652 7.8162,5.4274 22.3209,7.2446 33.9919,4.2587 z m 5.4311,-20.0427 c 3.3522,-1.5043 5.9354,-3.2132 5.7407,-3.7974 -0.1948,-0.5843 -2.3973,-2.0813 -4.8946,-3.3267 -4.0504,-2.0198 -5.2841,-2.1735 -11.4288,-1.4232 -3.7886,0.4626 -9.9613,0.4606 -13.7172,-0.01 -6.054,-0.7497 -7.3532,-0.5923 -11.4497,1.3869 -2.5414,1.2278 -4.7707,2.7269 -4.9539,3.3311 -0.341,1.1242 9.2328,5.8302 13.7325,6.7502 1.375,0.2812 6.6347,0.3554 11.6881,0.165 7.3646,-0.2775 10.3978,-0.889 15.2829,-3.0813 z m -42.1986,-11.2259 2.2723,-1.7489 -2.9934,-1.7683 c -2.9784,-1.7594 -2.9965,-1.7558 -3.6165,0.7143 -0.6159,2.4538 0.034,4.6172 1.3742,4.5741 0.3801,-0.012 1.7136,-0.8093 2.9634,-1.7712 z m 53.6433,0.1525 c 0.3463,-0.9025 0.3621,-2.4838 0.035,-3.5141 -0.5708,-1.7982 -0.7126,-1.8035 -3.5451,-0.1303 l -2.9505,1.743 2.2724,1.7489 c 2.8372,2.1837 3.4008,2.2042 4.1881,0.1525 z m -9.1471,-7.9022 c 4.348,-2.1287 4.3213,-3.2083 -0.144,-5.8161 -2.7722,-1.6191 -5.308,-1.8722 -18.4197,-1.8385 -8.3627,0.022 -15.8799,0.077 -16.7049,0.1236 -0.825,0.046 -3.2707,1.1561 -5.4348,2.4661 l -3.9349,2.3818 4.6639,2.3702 c 4.3551,2.2133 5.7079,2.3632 20.4348,2.2642 13.1549,-0.089 16.3961,-0.4122 19.5396,-1.9513 z m -44.887,-13.5421 c -2.8352,-1.8673 -2.8957,-1.8667 -3.7598,0.039 -0.483,1.0649 -0.6036,2.6519 -0.2679,3.5265 0.5561,1.4494 0.889,1.4459 3.7597,-0.039 l 3.1495,-1.6287 z m 54.0341,3.4443 c 0.3463,-0.9025 0.3621,-2.4838 0.035,-3.5141 -0.5708,-1.7982 -0.7126,-1.8035 -3.5451,-0.1303 l -2.9505,1.743 2.2724,1.7489 c 2.8372,2.1837 3.4008,2.2042 4.1881,0.1525 z m -9.337,-7.9766 c 1.7696,-1.0354 3.2633,-2.3325 3.3194,-2.8825 0.163,-1.5991 -8.3825,-5.3795 -14.9053,-6.5938 -9.9517,-1.8528 -23.5745,0.5355 -30.4253,5.334 -2.1462,1.5032 -2.1075,1.5606 2.6271,3.8928 4.4743,2.2039 5.886,2.3589 20.4861,2.2495 13.4109,-0.1004 16.1464,-0.3899 18.898,-2 z m -33.6186,-14.8305 c 6.7823,-1.7661 19.8724,-1.9993 26.5399,-0.4729 2.475,0.5666 7.0712,2.3116 10.2137,3.8776 5.227,2.6048 5.7616,2.6966 6.2755,1.0774 0.6728,-2.1199 -0.9813,-6.8142 -3.3088,-9.3904 -4.0593,-4.4929 -16.3912,-8.6437 -25.6804,-8.6437 -10.1593,0 -22.3405,4.4392 -26.4231,9.6293 -2.4632,3.1316 -3.545,6.7084 -2.6972,8.9179 0.5096,1.3278 1.2104,1.1913 4.8579,-0.9458 2.3443,-1.3736 6.9444,-3.1958 10.2225,-4.0494 z"
       style="fill:#9f0000;fill-opacity:1;stroke:#b60000;stroke-opacity:1" />
    <circle
       r="57.707207"
       cy="377.58282"
       cx="-561.3501"
       id="path1260-6"
       style="opacity:1;fill:#003a74;fill-opacity:1;fill-rule:evenodd;stroke:none;stroke-width:3;stroke-linecap:round;stroke-linejoin:miter;stroke-miterlimit:4;stroke-dasharray:none;stroke-dashoffset:0;stroke-opacity:1;paint-order:normal" />
    <path
       sodipodi:nodetypes="ccccccccc"
       inkscape:connector-curvature="0"
       id="path1159-6-1-8"
       d="M -469.489,101.3269 V 17.0768 h 284.0001 v 152.0001 h -36.0001 v -117 h -213 v 49.25 z"
       style="opacity:1;fill:#ff2d2d;fill-opacity:1;stroke:none;stroke-width:7.55905533;stroke-miterlimit:4;stroke-dasharray:none;stroke-opacity:1" />
  </g>
</svg>
