<?xml version="1.0" encoding="UTF-8" standalone="no"?>
<!-- Created with Inkscape (http://www.inkscape.org/) -->

<svg
   xmlns:dc="http://purl.org/dc/elements/1.1/"
   xmlns:cc="http://creativecommons.org/ns#"
   xmlns:rdf="http://www.w3.org/1999/02/22-rdf-syntax-ns#"
   xmlns:svg="http://www.w3.org/2000/svg"
   xmlns="http://www.w3.org/2000/svg"
   xmlns:xlink="http://www.w3.org/1999/xlink"
   xmlns:sodipodi="http://sodipodi.sourceforge.net/DTD/sodipodi-0.dtd"
   xmlns:inkscape="http://www.inkscape.org/namespaces/inkscape"
   version="1.1"
   id="svg1032"
   width="717.51965"
   height="471.0004"
   viewBox="0 0 717.51965 471.0004"
   sodipodi:docname="coffee-full.svg"
   inkscape:version="0.92.4 (5da689c313, 2019-01-14)">
  <metadata
     id="metadata1038">
    <rdf:RDF>
      <cc:Work
         rdf:about="">
        <dc:format>image/svg+xml</dc:format>
        <dc:type
           rdf:resource="http://purl.org/dc/dcmitype/StillImage" />
        <dc:title></dc:title>
      </cc:Work>
    </rdf:RDF>
  </metadata>
  <defs
     id="defs1036">
    <linearGradient
       inkscape:collect="always"
       id="linearGradient2301">
      <stop
         style="stop-color:#ff2d2d;stop-opacity:1;"
         offset="0"
         id="stop2297" />
      <stop
         style="stop-color:#ff2d2d;stop-opacity:0;"
         offset="1"
         id="stop2299" />
    </linearGradient>
    <linearGradient
       inkscape:collect="always"
       xlink:href="#linearGradient2301"
       id="linearGradient2303"
       x1="-454.39526"
       y1="148.99974"
       x2="-454.39526"
       y2="233.21136"
       gradientUnits="userSpaceOnUse" />
  </defs>
  <sodipodi:namedview
     pagecolor="#ffffff"
     bordercolor="#666666"
     borderopacity="1"
     objecttolerance="10"
     gridtolerance="10"
     guidetolerance="10"
     inkscape:pageopacity="0"
     inkscape:pageshadow="2"
     inkscape:window-width="2560"
     inkscape:window-height="1440"
     id="namedview1034"
     showgrid="false"
     inkscape:zoom="0.70710678"
     inkscape:cx="-154.66747"
     inkscape:cy="455.17578"
     inkscape:window-x="0"
     inkscape:window-y="0"
     inkscape:window-maximized="0"
     inkscape:current-layer="svg1032"
     showguides="false"
     inkscape:lockguides="true"
     fit-margin-top="0"
     fit-margin-left="0"
     fit-margin-right="0"
     fit-margin-bottom="0">
    <inkscape:grid
       type="xygrid"
       id="grid1462"
       originx="-1652.6426"
       originy="1054.4238" />
  </sodipodi:namedview>
  <path
     style="fill:#04872c;fill-opacity:1;stroke-width:1"
     d="m 578.2383,453.3644 c -3.395,-0.1977 -9.0741,-1.076 -11.4488,-1.7706 -0.5034,-0.1473 -0.9705,-0.2337 -1.0381,-0.1919 -0.077,0.047 -0.095,0.03 -0.048,-0.045 0.042,-0.067 0.015,-0.121 -0.059,-0.121 -0.1523,0 -1.1819,-0.315 -4.6763,-1.4306 -1.3419,-0.4284 -2.493,-0.7462 -2.5578,-0.7061 -0.068,0.042 -0.089,0.026 -0.05,-0.037 0.038,-0.062 -0.055,-0.1408 -0.214,-0.1806 -0.2785,-0.07 -1.1358,-0.3917 -3.2802,-1.2312 -0.6052,-0.2369 -1.5862,-0.6605 -2.1799,-0.9411 -0.5937,-0.2807 -1.1316,-0.4781 -1.1953,-0.4388 -0.064,0.039 -0.089,0.028 -0.056,-0.025 0.033,-0.053 -0.4861,-0.3788 -1.1533,-0.7237 -0.6671,-0.3448 -1.4767,-0.784 -1.7991,-0.976 -0.3224,-0.192 -0.892,-0.5173 -1.2658,-0.7228 -0.3738,-0.2056 -1.0879,-0.6734 -1.5869,-1.0397 -0.499,-0.3663 -0.9556,-0.6659 -1.0148,-0.6659 -0.059,0 -0.1232,-0.036 -0.1424,-0.081 -0.019,-0.044 -0.5773,-0.5344 -1.2402,-1.0888 -1.4599,-1.2209 -4.0305,-3.8343 -4.8459,-4.9265 -0.1576,-0.2112 -0.3491,-0.447 -0.4255,-0.5241 -0.076,-0.077 -0.3278,-0.423 -0.5587,-0.7689 -0.6778,-1.0154 -1.1352,-1.6732 -1.2027,-1.7294 -0.034,-0.029 -0.082,-0.1016 -0.1048,-0.1618 -0.036,-0.094 -0.7799,-1.2984 -1.376,-2.2281 -0.1,-0.1555 -0.65,-1.226 -1.223,-2.3789 -1.0019,-2.0163 -1.6612,-3.5469 -2.0541,-4.7688 -0.102,-0.3171 -0.2321,-0.6354 -0.2891,-0.7075 -0.057,-0.072 -0.077,-0.131 -0.044,-0.131 0.033,0 -0.034,-0.2712 -0.1481,-0.6027 -0.5298,-1.537 -1.2734,-4.404 -1.8808,-7.2515 -0.1775,-0.8322 -0.3387,-1.5397 -0.3583,-1.5721 -0.1094,-0.1818 -1.0168,-5.6572 -1.3211,-7.9721 -0.1175,-0.8935 -0.2334,-1.766 -0.2577,-1.939 -0.435,-3.1023 -1.4372,-16.4723 -1.8817,-25.1018 -0.085,-1.6429 -0.1788,-3.5295 -0.2092,-4.1924 -0.1458,-3.1707 -0.2683,-5.5604 -0.3143,-6.1314 -0.028,-0.3459 -0.078,-1.3835 -0.1113,-2.3058 -0.033,-0.9223 -0.1265,-3.0919 -0.207,-4.8212 -0.081,-1.7294 -0.1748,-3.8754 -0.2094,-4.7689 -0.035,-0.8935 -0.084,-1.8839 -0.1101,-2.201 -0.026,-0.317 -0.1175,-2.5337 -0.2035,-4.926 -0.086,-2.3923 -0.2033,-5.5995 -0.2605,-7.1271 -0.057,-1.5276 -0.1293,-3.4849 -0.1601,-4.3496 -0.088,-2.4711 -0.3512,-11.0714 -0.4203,-13.73 -0.034,-1.3259 -0.1079,-3.4482 -0.1629,-4.7164 -0.1349,-3.1042 -0.128,-7.8728 0.013,-9.3105 0.3671,-3.7321 1.7796,-4.8869 7.5184,-6.1472 0.9282,-0.2038 4.111,-0.7647 5.0002,-0.8812 0.2305,-0.03 0.938,-0.1277 1.5721,-0.2167 5.429,-0.7619 14.1201,-1.5526 20.1758,-1.8355 4.188,-0.1957 4.6586,-0.2152 7.7035,-0.3202 14.2912,-0.4928 27.5004,-0.5265 37.6267,-0.096 3.0095,0.128 8.7355,0.4047 9.6925,0.4684 0.376,0.025 1.4382,0.095 2.3606,0.1564 12.3868,0.8197 20.557,1.8633 26.0975,3.3337 0.9179,0.2436 2.5901,0.9091 3.1443,1.2513 1.4175,0.8754 2.0201,2.101 2.254,4.5837 0.1304,1.3841 0.3304,2.2984 0.632,2.8897 0.4119,0.8073 1.7291,1.8706 2.9134,2.3519 1.184,0.4811 1.6436,0.5144 6.673,0.4833 2.8764,-0.018 5.3297,0.018 6.2885,0.092 2.6404,0.2031 5.5164,0.8527 7.348,1.6595 0.9893,0.4358 2.3643,1.1506 2.4517,1.2746 0.029,0.041 0.2647,0.2053 0.5241,0.3655 1.0682,0.6596 3.4649,2.987 4.4268,4.2988 0.7002,0.9549 1.401,2.0191 2.0018,3.04 0.7594,1.2904 2.3913,4.9306 3.0776,6.865 0.8011,2.2585 1.6271,4.6807 1.6797,4.9261 0.031,0.1441 0.219,0.8515 0.4182,1.5721 0.8607,3.1143 1.5986,7.5248 1.8149,10.8478 0.2679,4.1145 -0.3824,8.125 -1.7464,10.7696 -0.2008,0.3893 -0.3315,0.7621 -0.2905,0.8285 0.046,0.075 0.028,0.092 -0.046,0.046 -0.071,-0.044 -0.121,-0.01 -0.121,0.08 0,0.085 -0.038,0.1703 -0.085,0.1896 -0.047,0.019 -0.2656,0.3297 -0.4865,0.69 -0.2209,0.3602 -0.4319,0.655 -0.4689,0.655 -0.037,0 -0.1567,0.1533 -0.2659,0.3406 -0.225,0.386 -2.9249,3.1182 -3.0813,3.1182 -0.056,0 -0.1175,0.035 -0.1367,0.079 -0.061,0.1377 -1.1077,0.9695 -1.2198,0.9695 -0.059,0 -0.1235,0.038 -0.1427,0.084 -0.019,0.046 -0.4123,0.338 -0.8734,0.6483 -0.4612,0.3104 -1.0275,0.6917 -1.2584,0.8474 -0.4659,0.3142 -3.5516,1.8978 -4.4537,2.2858 -1.9827,0.8526 -2.9994,1.2222 -9.0661,3.2956 -1.2682,0.4335 -3.0604,1.055 -3.9827,1.3811 -0.9224,0.3262 -1.8656,0.6554 -2.0962,0.7316 -0.2306,0.076 -0.5608,0.1976 -0.7337,0.2697 -0.1729,0.072 -0.3713,0.143 -0.4409,0.1575 -0.07,0.014 -0.2772,0.1016 -0.4615,0.1935 -0.1843,0.092 -0.3755,0.1672 -0.4249,0.1672 -0.049,0 -0.8321,0.3116 -1.7394,0.6925 -1.6742,0.7028 -2.0572,0.8708 -3.2743,1.4367 -0.3747,0.1742 -0.7048,0.324 -0.7336,0.3329 -0.7659,0.2371 -4.1239,1.9678 -4.7817,2.4644 -0.3038,0.2294 -0.695,0.6244 -0.8693,0.8777 -0.4885,0.7101 -0.5119,0.8746 -0.7445,5.2532 -0.058,1.0952 -0.1308,2.4394 -0.1615,2.9871 -0.056,0.9923 -0.313,4.6221 -0.4124,5.8169 -0.029,0.3459 -0.1247,1.5014 -0.213,2.5678 -0.2156,2.6023 -0.632,6.347 -0.8918,8.0179 -0.2069,1.3313 -0.265,1.6622 -0.7277,4.14 -0.2895,1.5507 -0.6808,3.1982 -0.9956,4.1924 -0.137,0.4323 -0.3986,1.3049 -0.5814,1.939 -0.5222,1.811 -1.4246,4.2712 -2.1723,5.9217 -0.5307,1.1715 -0.6212,1.4182 -0.5726,1.5606 0.027,0.08 0.01,0.1188 -0.046,0.086 -0.1034,-0.064 -1.7748,3.1406 -1.7509,3.3567 0.01,0.072 -0.028,0.1041 -0.079,0.072 -0.051,-0.032 -0.093,-0.01 -0.093,0.052 0,0.06 -0.2181,0.4993 -0.4848,0.9756 -0.2666,0.4764 -0.4867,0.923 -0.4891,0.9926 0,0.069 -0.039,0.1048 -0.082,0.079 -0.043,-0.026 -0.2233,0.1998 -0.4018,0.5024 -0.4186,0.71 -0.5464,0.9124 -0.7684,1.2164 -0.1001,0.1372 -0.1515,0.3028 -0.1142,0.3681 0.037,0.065 0.028,0.083 -0.02,0.039 -0.048,-0.044 -0.3586,0.3412 -0.6893,0.8559 -0.3306,0.5148 -0.7011,1.0359 -0.8234,1.1582 -0.1222,0.1222 -0.1896,0.275 -0.1498,0.3394 0.04,0.064 0.026,0.088 -0.031,0.053 -0.113,-0.07 -1.257,1.3731 -1.2099,1.526 0.016,0.051 -0.017,0.065 -0.072,0.031 -0.055,-0.034 -0.1392,0 -0.186,0.085 -0.076,0.1316 -0.5185,0.6248 -1.5728,1.752 -0.1842,0.1969 -0.3965,0.4059 -0.4717,0.4645 -0.7404,0.5767 -1.2203,1.0414 -1.166,1.1292 0.039,0.063 0.014,0.074 -0.063,0.027 -0.074,-0.046 -0.2251,0.01 -0.3568,0.1267 -0.2654,0.2401 -3.0138,2.1123 -3.4772,2.3686 -1.5008,0.8303 -3.1749,1.7137 -3.8255,2.0186 -0.4323,0.2027 -1.0691,0.5021 -1.4149,0.6654 -0.5735,0.2708 -1.1409,0.5261 -1.9914,0.8961 -0.173,0.075 -1.0455,0.4047 -1.939,0.7322 -2.6828,0.9834 -2.8162,1.0376 -2.7642,1.1217 0.027,0.044 -0.012,0.057 -0.088,0.028 -0.076,-0.029 -0.9625,0.2041 -1.9706,0.5183 -1.7912,0.5582 -6.3969,1.7673 -7.9659,2.0911 -1.6397,0.3385 -7.4217,0.8891 -10.5316,1.0031 -2.7467,0.1006 -8.7649,0.1234 -10.2189,0.039 z m 79.3408,-88.4783 c 1.3446,-0.2152 3.5803,-0.7364 4.14,-0.9651 0.1729,-0.071 0.3882,-0.1433 0.4785,-0.1613 0.09,-0.018 0.7034,-0.2492 1.3625,-0.5137 2.5705,-1.0317 5.3137,-2.5699 6.9272,-3.8843 0.8158,-0.6646 1.9279,-1.7332 2.2892,-2.1998 0.086,-0.1117 0.3105,-0.3984 0.4978,-0.637 0.1874,-0.2387 0.3406,-0.4823 0.3406,-0.5412 0,-0.059 0.042,-0.1229 0.093,-0.1422 0.051,-0.019 0.2839,-0.4358 0.5176,-0.9258 1.5643,-3.28 1.9123,-6.4728 1.2167,-11.1622 -0.3541,-2.3863 -0.4964,-3.0586 -1.1096,-5.2405 -1.1809,-4.2022 -2.3912,-6.6225 -4.1762,-8.3519 -0.7975,-0.7726 -2.8756,-2.1529 -3.8779,-2.5758 -2.4374,-1.0283 -4.9757,-1.4272 -8.018,-1.2601 -2.1316,0.117 -2.9333,0.3447 -7.2842,2.0687 -0.8359,0.3312 -1.8735,0.706 -2.3058,0.833 -1.3564,0.3984 -1.9606,0.8128 -2.3522,1.6133 -0.3866,0.7902 -0.452,1.3429 -0.6342,5.3573 -0.688,15.162 -1.1908,23.7483 -1.4598,24.9305 -0.1176,0.5168 0.948,1.7002 2.1377,2.3741 1.0184,0.5769 3.2552,1.3202 4.5707,1.5189 1.4492,0.2188 4.8706,0.1494 6.6466,-0.1349 z"
     id="path1653"
     inkscape:connector-curvature="0" />
  <path
     style="opacity:1;fill:#006edd;fill-opacity:1;stroke:none;stroke-width:7.55905533;stroke-miterlimit:4;stroke-dasharray:none;stroke-opacity:1"
     d="m 19,270.0004 v -206 h 199 v 206 z"
     id="path1159-6-7"
     inkscape:connector-curvature="0"
     sodipodi:nodetypes="ccccc" />
  <path
     style="opacity:1;fill:#006edd;fill-opacity:1;stroke:none;stroke-width:7.55905533;stroke-miterlimit:4;stroke-dasharray:none;stroke-opacity:1"
     d="m 213.2722,448.5636 c -15.2239,-3.6889 -30.1713,-15.826 -36.8749,-29.942 l -3.6193,-7.6211 H 102.0001 V 270.0004 H 19 v -38 h 199 v 38 h -80.9999 v 106 h 35.8604 l 3.6741,-7.6388 c 8.7508,-18.1936 29.9072,-31.3264 50.4654,-31.3264 11.9667,0 26.4109,5.3126 36.1718,13.3041 6.1019,4.9957 15.2246,17.6365 16.3168,22.609 l 0.6704,3.0521 H 319 v -106 H 236 V 115.0005 h 83 V 33.0004 H 603.0001 V 185.0005 H 567 v -117 H 354 v 47 h 81 v 154.9999 h -81 v 141.0001 h -36.3479 -36.3479 l -3.8145,7.75 c -7.1609,14.5489 -20.9509,25.6438 -36.9498,29.7283 -7.0878,1.8096 -19.9843,1.8497 -27.2677,0.085 z"
     id="path1159-6"
     inkscape:connector-curvature="0"
     sodipodi:nodetypes="cccccccccccccsccccccccccccccccccccccccc" />
  <path
     style="opacity:1;fill:#000000;fill-opacity:1;fill-rule:evenodd;stroke:#020202;stroke-width:3;stroke-linecap:round;stroke-linejoin:miter;stroke-miterlimit:4;stroke-dasharray:none;stroke-dashoffset:0;stroke-opacity:1;paint-order:normal"
     d="m 225.4395,337.9067 v 30 h 4 v -30 z m -35.6699,14.7754 -2.8281,2.8281 21.2128,21.2129 2.8301,-2.8281 z m 75.3398,0 -21.2129,21.2129 2.8282,2.8281 21.2128,-21.2129 z m -92.9414,38.498 v 4 h 30 v -4 z m 80.543,0 v 4 h 30 v -4 z m -44.5567,18.4551 -21.2128,21.2129 2.8281,2.8281 21.2148,-21.2129 z m 38.5704,0 -2.8301,2.8281 21.2148,21.2129 2.8281,-2.8281 z m -21.2852,8.8164 v 30 h 4 v -30 z"
     id="rect1445"
     inkscape:connector-curvature="0" />
  <path
     style="fill:#a5a5a5;fill-opacity:1"
     d="m 237.4595,240.7769 v -5.9778 h 38.6274 30.6273 l -4.0934,-4.4409 c -4.7667,-5.1712 -5.6698,-7.9288 -4.7059,-14.3686 0.3862,-2.5798 0.6404,-5.703 0.565,-6.9405 -0.1732,-2.8424 -0.2808,-12.8009 -0.181,-16.75 0.042,-1.65 0.042,-5.7 0,-9 -0.042,-3.3 0.02,-7.35 0.1373,-9 0.1173,-1.65 -0.107,-5.0841 -0.4984,-7.6314 -0.9599,-6.2468 0.7516,-10.9402 5.5804,-15.3026 l 3.9471,-3.566 h -70.0058 v -6 h 56.3947 c 45.4824,0 48.7822,0.1197 54.8351,1.9893 7.315,2.2593 13.4058,6.2883 16.8888,11.1718 1.8856,2.6438 2.3488,4.4839 2.2248,8.8389 -0.1787,6.278 -0.205,10.2506 -0.1815,27.5 0.01,6.2365 -0.071,15.4311 -0.1576,18.25 -0.046,1.5125 0.2062,4.6669 0.5616,7.0097 0.886,5.8418 0,8.6098 -4.2778,13.3432 -6.3513,7.0302 -20.2084,12.1859 -31.2881,11.6411 z m 107.5399,-7.5026 c 3.2781,-0.8387 7.7601,-2.7596 9.9601,-4.2687 4.382,-3.0059 7.9803,-9.1179 7.0653,-12.0009 -0.5363,-1.6898 -1.1054,-1.5748 -7.3234,1.4791 -13.4789,6.6199 -29.9686,6.6104 -43.5157,-0.025 l -6.7739,-3.3179 -0.5796,2.3095 c -0.7938,3.1627 2.3335,8.2032 7.1753,11.5652 7.8162,5.4274 22.3209,7.2446 33.9919,4.2587 z m 5.4311,-20.0427 c 3.3522,-1.5043 5.9354,-3.2132 5.7407,-3.7974 -0.1948,-0.5843 -2.3973,-2.0813 -4.8946,-3.3267 -4.0504,-2.0198 -5.2841,-2.1735 -11.4288,-1.4232 -3.7886,0.4626 -9.9613,0.4606 -13.7172,-0.01 -6.054,-0.7497 -7.3532,-0.5923 -11.4497,1.3869 -2.5414,1.2278 -4.7707,2.7269 -4.9539,3.3311 -0.341,1.1242 9.2328,5.8302 13.7325,6.7502 1.375,0.2812 6.6347,0.3554 11.6881,0.165 7.3646,-0.2775 10.3978,-0.889 15.2829,-3.0813 z m -42.1986,-11.2259 2.2723,-1.7489 -2.9934,-1.7683 c -2.9784,-1.7594 -2.9965,-1.7558 -3.6165,0.7143 -0.6159,2.4538 0.034,4.6172 1.3742,4.5741 0.3801,-0.012 1.7136,-0.8093 2.9634,-1.7712 z m 53.6433,0.1525 c 0.3463,-0.9025 0.3621,-2.4838 0.035,-3.5141 -0.5708,-1.7982 -0.7126,-1.8035 -3.5451,-0.1303 l -2.9505,1.743 2.2724,1.7489 c 2.8372,2.1837 3.4008,2.2042 4.1881,0.1525 z m -9.1471,-7.9022 c 4.348,-2.1287 4.3213,-3.2083 -0.144,-5.8161 -2.7722,-1.6191 -5.308,-1.8722 -18.4197,-1.8385 -8.3627,0.022 -15.8799,0.077 -16.7049,0.1236 -0.825,0.046 -3.2707,1.1561 -5.4348,2.4661 l -3.9349,2.3818 4.6639,2.3702 c 4.3551,2.2133 5.7079,2.3632 20.4348,2.2642 13.1549,-0.089 16.3961,-0.4122 19.5396,-1.9513 z m -44.887,-13.5421 c -2.8352,-1.8673 -2.8957,-1.8667 -3.7598,0.039 -0.483,1.0649 -0.6036,2.6519 -0.2679,3.5265 0.5561,1.4494 0.889,1.4459 3.7597,-0.039 l 3.1495,-1.6287 z m 54.0341,3.4443 c 0.3463,-0.9025 0.3621,-2.4838 0.035,-3.5141 -0.5708,-1.7982 -0.7126,-1.8035 -3.5451,-0.1303 l -2.9505,1.743 2.2724,1.7489 c 2.8372,2.1837 3.4008,2.2042 4.1881,0.1525 z m -9.337,-7.9766 c 1.7696,-1.0354 3.2633,-2.3325 3.3194,-2.8825 0.163,-1.5991 -8.3825,-5.3795 -14.9053,-6.5938 -9.9517,-1.8528 -23.5745,0.5355 -30.4253,5.334 -2.1462,1.5032 -2.1075,1.5606 2.6271,3.8928 4.4743,2.2039 5.886,2.3589 20.4861,2.2495 13.4109,-0.1004 16.1464,-0.3899 18.898,-2 z m -33.6186,-14.8305 c 6.7823,-1.7661 19.8724,-1.9993 26.5399,-0.4729 2.475,0.5666 7.0712,2.3116 10.2137,3.8776 5.227,2.6048 5.7616,2.6966 6.2755,1.0774 0.6728,-2.1199 -0.9813,-6.8142 -3.3088,-9.3904 -4.0593,-4.4929 -16.3912,-8.6437 -25.6804,-8.6437 -10.1593,0 -22.3405,4.4392 -26.4231,9.6293 -2.4632,3.1316 -3.545,6.7084 -2.6972,8.9179 0.5096,1.3278 1.2104,1.1913 4.8579,-0.9458 2.3443,-1.3736 6.9444,-3.1958 10.2225,-4.0494 z"
     id="path1228-3-5-2"
     inkscape:connector-curvature="0"
     sodipodi:nodetypes="ccccccccsscccccsccccccccccccccccccccccccccccccccccccccccccccccccccccccccccccccccccccccccccccscccc" />
  <g
     id="g2295"
     transform="translate(788.489,15.9237)">
    <rect
       y="99.076965"
       x="-552.48901"
       height="154.99989"
       width="199"
       id="rect1341-3"
       style="opacity:1;fill:url(#linearGradient2303);fill-opacity:1;fill-rule:evenodd;stroke:none;stroke-width:7.55905533;stroke-linecap:round;stroke-linejoin:miter;stroke-miterlimit:4;stroke-dasharray:none;stroke-dashoffset:0;stroke-opacity:1;paint-order:normal" />
    <path
       sodipodi:nodetypes="ccccccccsscccccsccccccccccccccccccccccccccccccccccccccccccccccccccccccccccccccccccccccccccccscccc"
       inkscape:connector-curvature="0"
       id="path1228-3-5-0"
       d="m -551.0295,224.8533 v -5.9778 h 38.6274 30.6273 l -4.0934,-4.4409 c -4.7667,-5.1712 -5.6698,-7.9288 -4.7059,-14.3686 0.3862,-2.5798 0.6404,-5.703 0.565,-6.9405 -0.1732,-2.8424 -0.2808,-12.8009 -0.181,-16.75 0.042,-1.65 0.042,-5.7 0,-9 -0.042,-3.3 0.02,-7.35 0.1373,-9 0.1173,-1.65 -0.107,-5.0841 -0.4984,-7.6314 -0.9599,-6.2468 0.7516,-10.9402 5.5804,-15.3026 l 3.9471,-3.566 h -70.0058 v -6 h 56.3947 c 45.4824,0 48.7822,0.1197 54.8351,1.9893 7.315,2.2593 13.4058,6.2883 16.8888,11.1718 1.8856,2.6438 2.3488,4.4839 2.2248,8.8389 -0.1787,6.278 -0.205,10.2506 -0.1815,27.5 0.01,6.2365 -0.071,15.4311 -0.1576,18.25 -0.046,1.5125 0.2062,4.6669 0.5616,7.0097 0.886,5.8418 0,8.6098 -4.2778,13.3432 -6.3513,7.0302 -20.2084,12.1859 -31.2881,11.6411 z m 107.5399,-7.5026 c 3.2781,-0.8387 7.7601,-2.7596 9.9601,-4.2687 4.382,-3.0059 7.9803,-9.1179 7.0653,-12.0009 -0.5363,-1.6898 -1.1054,-1.5748 -7.3234,1.4791 -13.4789,6.6199 -29.9686,6.6104 -43.5157,-0.025 l -6.7739,-3.3179 -0.5796,2.3095 c -0.7938,3.1627 2.3335,8.2032 7.1753,11.5652 7.8162,5.4274 22.3209,7.2446 33.9919,4.2587 z m 5.4311,-20.0427 c 3.3522,-1.5043 5.9354,-3.2132 5.7407,-3.7974 -0.1948,-0.5843 -2.3973,-2.0813 -4.8946,-3.3267 -4.0504,-2.0198 -5.2841,-2.1735 -11.4288,-1.4232 -3.7886,0.4626 -9.9613,0.4606 -13.7172,-0.01 -6.054,-0.7497 -7.3532,-0.5923 -11.4497,1.3869 -2.5414,1.2278 -4.7707,2.7269 -4.9539,3.3311 -0.341,1.1242 9.2328,5.8302 13.7325,6.7502 1.375,0.2812 6.6347,0.3554 11.6881,0.165 7.3646,-0.2775 10.3978,-0.889 15.2829,-3.0813 z m -42.1986,-11.2259 2.2723,-1.7489 -2.9934,-1.7683 c -2.9784,-1.7594 -2.9965,-1.7558 -3.6165,0.7143 -0.6159,2.4538 0.034,4.6172 1.3742,4.5741 0.3801,-0.012 1.7136,-0.8093 2.9634,-1.7712 z m 53.6433,0.1525 c 0.3463,-0.9025 0.3621,-2.4838 0.035,-3.5141 -0.5708,-1.7982 -0.7126,-1.8035 -3.5451,-0.1303 l -2.9505,1.743 2.2724,1.7489 c 2.8372,2.1837 3.4008,2.2042 4.1881,0.1525 z m -9.1471,-7.9022 c 4.348,-2.1287 4.3213,-3.2083 -0.144,-5.8161 -2.7722,-1.6191 -5.308,-1.8722 -18.4197,-1.8385 -8.3627,0.022 -15.8799,0.077 -16.7049,0.1236 -0.825,0.046 -3.2707,1.1561 -5.4348,2.4661 l -3.9349,2.3818 4.6639,2.3702 c 4.3551,2.2133 5.7079,2.3632 20.4348,2.2642 13.1549,-0.089 16.3961,-0.4122 19.5396,-1.9513 z m -44.887,-13.5421 c -2.8352,-1.8673 -2.8957,-1.8667 -3.7598,0.039 -0.483,1.0649 -0.6036,2.6519 -0.2679,3.5265 0.5561,1.4494 0.889,1.4459 3.7597,-0.039 l 3.1495,-1.6287 z m 54.0341,3.4443 c 0.3463,-0.9025 0.3621,-2.4838 0.035,-3.5141 -0.5708,-1.7982 -0.7126,-1.8035 -3.5451,-0.1303 l -2.9505,1.743 2.2724,1.7489 c 2.8372,2.1837 3.4008,2.2042 4.1881,0.1525 z m -9.337,-7.9766 c 1.7696,-1.0354 3.2633,-2.3325 3.3194,-2.8825 0.163,-1.5991 -8.3825,-5.3795 -14.9053,-6.5938 -9.9517,-1.8528 -23.5745,0.5355 -30.4253,5.334 -2.1462,1.5032 -2.1075,1.5606 2.6271,3.8928 4.4743,2.2039 5.886,2.3589 20.4861,2.2495 13.4109,-0.1004 16.1464,-0.3899 18.898,-2 z m -33.6186,-14.8305 c 6.7823,-1.7661 19.8724,-1.9993 26.5399,-0.4729 2.475,0.5666 7.0712,2.3116 10.2137,3.8776 5.227,2.6048 5.7616,2.6966 6.2755,1.0774 0.6728,-2.1199 -0.9813,-6.8142 -3.3088,-9.3904 -4.0593,-4.4929 -16.3912,-8.6437 -25.6804,-8.6437 -10.1593,0 -22.3405,4.4392 -26.4231,9.6293 -2.4632,3.1316 -3.545,6.7084 -2.6972,8.9179 0.5096,1.3278 1.2104,1.1913 4.8579,-0.9458 2.3443,-1.3736 6.9444,-3.1958 10.2225,-4.0494 z"
       style="fill:#9f0000;fill-opacity:1;stroke:#b60000;stroke-opacity:1" />
    <circle
       r="57.707207"
       cy="377.58282"
       cx="-561.3501"
       id="path1260-6"
       style="opacity:1;fill:#003a74;fill-opacity:1;fill-rule:evenodd;stroke:none;stroke-width:3;stroke-linecap:round;stroke-linejoin:miter;stroke-miterlimit:4;stroke-dasharray:none;stroke-dashoffset:0;stroke-opacity:1;paint-order:normal" />
    <path
       sodipodi:nodetypes="ccccccccc"
       inkscape:connector-curvature="0"
       id="path1159-6-1-8"
       d="M -469.489,101.3269 V 17.0768 h 284.0001 v 152.0001 h -36.0001 v -117 h -213 v 49.25 z"
       style="opacity:1;fill:#ff2d2d;fill-opacity:1;stroke:none;stroke-width:7.55905533;stroke-miterlimit:4;stroke-dasharray:none;stroke-opacity:1" />
  </g>
  <path
     style="fill:#f9f9f9;stroke:#a5a5a5;stroke-width:3.77952766;stroke-miterlimit:4;stroke-dasharray:none;stroke-opacity:1"
     d="m 51.706,263.258 c 0,-6.7853 -0.015,-6.8219 -3.451,-8.4605 -4.3723,-2.0849 -6.6653,-5.5768 -7.2876,-11.0976 -0.8605,-7.6345 3.5953,-13.8699 11.2177,-15.6979 h 6.0418 c 7.6224,1.828 12.0782,8.0634 11.2177,15.6979 -0.6223,5.5208 -2.9153,9.0127 -7.2875,11.0976 -3.4362,1.6386 -3.4511,1.6752 -3.4511,8.4605 1.9191,8.9052 -7,11.5036 -7,0 z"
     id="path1228-3"
     inkscape:connector-curvature="0"
     sodipodi:nodetypes="ccccccccc" />
  <path
     style="fill:#a4a9a6"
     d="m 0,0 v 470 l 454.9981,0.9981 1,-317.9981 108.5,-0.5176 V 172.5 l -81.3848,0.8125 80.3711,89.6871 h 42.502 l 51.0644,-55.4993 c 0.7324,0 2.8285,0.8826 4.6563,1.961 12.9331,7.6307 37.9371,6.1447 48.9101,-2.9063 6.3471,-5.2354 8.6809,-13.7169 5.4649,-19.8555 -1.7927,-3.4219 -7.1898,-8.526 -11.084,-10.4824 -7.608,-3.8224 -10.816,-4.0388 -56.25,-3.7929 l -43.4542,0.2402 v -20.1641 h 37.0225 c 42.6352,0 45.675,-0.3819 50.961,-6.4023 1.6804,-1.9139 3.4995,-5.5984 4.1933,-8.4903 l -0.01,-123.9648 C 695.48,6.4072 691.7922,1.9464 686.5388,0.4359 Z m 19,20.0004 h 199 v 250 h -81 v 106 h 35.8594 l 3.6738,-7.6386 c 8.7508,-18.1936 29.9086,-31.3282 50.4668,-31.3282 11.9667,0 26.411,5.3132 36.1719,13.3047 6.1019,4.9957 15.2242,17.6369 16.3164,22.6094 l 0.6699,3.0527 H 319 v -106 h -83 v -155 h 83 v -82 h 284 v 152 h -36 v -117 H 354 v 47 h 81 v 155 h -81 v 141 h -72.6973 l -3.8144,7.75 c -7.1609,14.5489 -20.9504,25.644 -36.9493,29.7285 -7.0878,1.8096 -19.9841,1.8487 -27.2675,0.084 -15.2239,-3.6889 -30.1714,-15.8254 -36.875,-29.9414 l -3.6192,-7.6211 H 102 v -141 H 19 Z m 659.3769,163.2012 7.6778,0.5801 c 9.9163,0.75 18.7837,4.8277 19.25,8.8515 0.3882,3.35 -3.1934,6.3108 -10.125,8.3692 -9.5113,2.8246 -24.2609,1.3465 -28.459,-2.8516 -1.3116,-1.3116 -0.7213,-2.2651 5.0859,-8.2168 z"
     id="path1171-3"
     inkscape:connector-curvature="0"
     sodipodi:nodetypes="cccccccccccccccccsccccccccccccccccscccccccccccccccccccccccccccccccc" />
  <path
     inkscape:connector-curvature="0"
     id="path1167-7"
     d="m 542.7696,220.3938 c -2.9321,-7.712 5.5565,-15.3327 21.7027,-19.4836 9.8248,-2.5259 27.5309,-2.7653 38.3009,-0.518 17.7186,3.6972 27.5686,13.0809 22.8959,21.8119 l -35.1301,40.7613 h -11.55 z"
     style="fill:#aa4400"
     sodipodi:nodetypes="ccscccc" />
  <path
     style="opacity:1;fill:none;stroke:#565656;stroke-width:7.55905533;stroke-miterlimit:4;stroke-dasharray:none;stroke-opacity:1"
     d="m 213.2722,448.5636 c -15.2239,-3.6889 -30.1713,-15.826 -36.8749,-29.942 l -3.6193,-7.6211 H 102.0001 V 270.0004 H 19 v -250 h 199 v 250 h -80.9999 v 106 h 35.8604 l 3.6741,-7.6388 c 8.7508,-18.1936 29.9072,-31.3264 50.4654,-31.3264 11.9667,0 26.4109,5.3126 36.1718,13.3041 6.1019,4.9957 15.2246,17.6365 16.3168,22.609 l 0.6704,3.0521 H 319 v -106 H 236 V 115.0005 h 83 V 33.0004 H 603.0001 V 185.0005 H 567 v -117 H 354 v 47 h 81 v 154.9999 h -81 v 141.0001 h -36.3479 -36.3479 l -3.8145,7.75 c -7.1609,14.5489 -20.9509,25.6438 -36.9498,29.7283 -7.0878,1.8096 -19.9843,1.8497 -27.2677,0.085 z"
     id="path1159"
     inkscape:connector-curvature="0"
     sodipodi:nodetypes="cccccccccccccsccccccccccccccccccccccccc" />
  <path
     inkscape:connector-curvature="0"
     id="path1167-7-5"
     d="M 455,471.0004 V 444.694 l 212.9997,-0.027 c 23.8844,0.5554 25.3159,0.9312 28.4138,7.4597 3.1749,6.6905 0.8095,14.3423 -5.4755,17.713 -78.4239,0.3876 -157.5143,0.7726 -235.938,1.1607 z"
     style="fill:#575962"
     sodipodi:nodetypes="cccccc" />
  <circle
     style="opacity:1;fill:#a4a9a6;fill-opacity:1;fill-rule:evenodd;stroke:#565656;stroke-width:7.55905533;stroke-linecap:round;stroke-linejoin:miter;stroke-miterlimit:4;stroke-dasharray:none;stroke-dashoffset:0;stroke-opacity:1;paint-order:normal"
     id="path1322-9"
     cx="227.37755"
     cy="393.14655"
     r="23.599688" />
  <path
     style="fill:#666666;stroke-width:1"
     d="m 67.771174,440.62625 c -2.129008,-0.75594 -3.030906,-3.00656 -1.979182,-4.93891 0.771234,-1.41703 2.300555,-2.50167 3.566558,-2.52948 0.720413,-0.0158 1.158852,0.33874 1.347307,1.08961 0.303235,1.20819 -1.244203,2.97176 -2.852487,3.25092 l -0.535498,0.093 0.42007,0.27936 c 0.548524,0.36476 1.214411,0.24143 2.191778,-0.40594 1.654038,-1.09559 2.95369,-2.81974 3.511636,-4.65861 0.457215,-1.50689 0.212343,-2.26474 -0.998496,-3.09019 l -0.841018,-0.57334 -2.83048,2.77566 c -4.958343,4.86232 -8.653499,7.4586 -11.206885,7.87417 -1.871988,0.30468 -3.173762,-0.6736 -3.229256,-2.42676 l -0.02232,-0.70344 -0.994494,0.99449 c -0.546974,0.54698 -1.442024,1.23533 -1.988988,1.52969 -0.913298,0.49149 -1.100687,0.53521 -2.294992,0.53549 -1.116991,3.1e-4 -1.370976,-0.0499 -1.800049,-0.356 -0.777248,-0.55438 -1.023912,-1.15399 -1.027397,-2.49753 l -0.0033,-1.17086 -0.611987,0.46147 c -3.687032,2.78009 -6.639227,4.06675 -8.290385,3.61318 -1.26365,-0.34712 -2.169056,-1.9485 -1.93101,-3.41537 0.07651,-0.47185 0.05442,-0.55266 -0.120925,-0.44199 -0.118044,0.0744 -0.971969,0.64189 -1.897613,1.26092 -2.004081,1.34019 -2.742611,1.72794 -4.263951,2.23863 -2.841726,0.95394 -4.711636,0.15442 -4.945823,-2.1147 -0.203911,-1.9757 1.354047,-4.45066 4.644534,-7.37824 0.741135,-0.6594 1.210883,-1.14237 1.043886,-1.07325 -0.519239,0.21488 -2.409354,0.69961 -2.728001,0.69961 -0.184762,0 -1.234013,0.91208 -2.687833,2.33643 -4.682042,4.58719 -8.808426,7.40653 -11.565746,7.90225 -3.1673638,0.56945 -4.4303101,-2.47809 -2.562829,-6.18421 1.070016,-2.12351 5.122877,-7.21044 8.746138,-10.97769 l 0.84612,-0.87973 H 17.61079 15.343301 l 0.380571,-0.64443 c 0.44496,-0.75345 0.555111,-0.79325 2.8359,-1.02495 2.055684,-0.20881 5.387417,-0.80354 7.829861,-1.39764 0.967341,-0.2353 1.789682,-0.39694 1.827422,-0.3592 0.03771,0.0377 -0.373074,0.51425 -0.912903,1.05892 l -0.9815,0.99031 h 3.399803 c 1.869899,0 3.399813,0.0379 3.399813,0.0844 0,0.0465 -0.154915,0.35572 -0.34425,0.68731 l -0.34425,0.60288 -3.751154,0.001 -3.751166,10e-4 -2.139297,2.31973 c -4.902597,5.31606 -7.791528,9.32582 -7.514446,10.4298 0.378999,1.51008 4.343268,-0.44264 7.759483,-3.82214 l 1.466353,-1.4506 -0.510104,-0.51012 c -0.438175,-0.43817 -0.510037,-0.61475 -0.509543,-1.25216 9.68e-4,-1.24983 0.919125,-2.35829 2.64773,-3.19651 1.267366,-0.61456 2.016207,-0.75613 2.834228,-0.53586 1.410793,0.37989 1.668263,1.89074 0.491459,2.88395 -0.130093,0.10982 -0.580767,0.37215 -1.001518,0.58301 l -0.764991,0.3834 0.688489,-0.0992 c 1.128347,-0.16244 3.310352,-0.95713 5.491137,-1.99984 l 2.048648,-0.97955 H 37.8229 c 1.047107,0 1.880881,0.0531 1.852827,0.11798 -0.02803,0.0648 -1.255867,1.26353 -2.728485,2.66375 -3.606023,3.42877 -5.371521,5.47119 -5.795152,6.70412 -0.167107,0.48634 -0.153036,0.56069 0.153233,0.80988 0.412605,0.3357 0.91763,0.25153 2.158898,-0.35985 1.946873,-0.95891 3.516704,-2.31069 5.359758,-4.61528 0.777006,-0.97161 2.271214,-2.73887 3.320443,-3.92727 l 1.907705,-2.16074 0.364708,0.46602 c 0.463691,0.5925 1.808019,1.36898 2.373352,1.37086 0.238419,5.8e-4 0.410539,0.0664 0.382495,0.14572 -0.02803,0.0794 -0.548216,0.71621 -1.155939,1.41525 -1.718689,1.97692 -3.73993,4.72767 -4.297854,5.84903 -0.867875,1.74436 -0.46922,2.34843 1.224503,1.85538 1.575987,-0.45876 4.787698,-2.63412 5.407952,-3.66291 0.452137,-0.74994 3.450053,-3.75863 4.660804,-4.67754 3.101943,-2.35426 5.973889,-3.36043 7.704901,-2.69936 0.800102,0.30557 1.170549,0.67873 1.301829,1.31136 l 0.09674,0.46602 0.753678,-0.53625 0.753678,-0.53626 h 1.830874 1.830863 l -1.28711,1.33873 c -2.468926,2.56798 -5.80344,6.99016 -6.022325,7.98676 -0.116978,0.53256 0.108612,1.01996 0.534596,1.15519 0.555802,0.1764 1.952326,-0.37219 3.397055,-1.33447 0.956963,-0.63738 2.253373,-1.7642 3.966059,-3.44723 l 2.544383,-2.50031 0.06761,-0.79609 c 0.129136,-1.52087 1.114946,-2.86026 2.621456,-3.5617 1.985932,-0.92466 4.079596,0.0592 4.079596,1.91708 0,0.78543 -0.283062,1.35085 -0.984666,1.96688 -0.858487,0.75376 -2.153753,0.95931 -2.805744,0.44524 -0.107184,-0.0845 -0.235331,-0.11333 -0.284679,-0.064 -0.04936,0.0494 0.375867,0.42063 0.944937,0.82506 2.087564,1.48356 2.580661,1.94964 3.053651,2.88632 0.414156,0.82014 0.45826,1.04737 0.451378,2.32536 l -0.0077,1.41637 0.619617,-0.57485 c 0.340798,-0.31615 1.41231,-1.34401 2.381135,-2.28411 1.755791,-1.70373 2.389171,-2.09328 2.890403,-1.77768 0.701659,0.44182 0.296243,1.27145 -1.419433,2.90464 -3.69742,3.51971 -8.149409,6.61854 -10.489452,7.30124 -1.016909,0.29668 -2.927648,0.29615 -3.764643,-10e-4 z M 53.734139,433.8905 c 2.245941,-1.54204 5.341938,-5.6941 5.21577,-6.99488 -0.04034,-0.41568 -0.113241,-0.4908 -0.51449,-0.53004 -0.884937,-0.0865 -3.338033,1.49391 -4.526489,2.91629 -0.797289,0.95424 -1.675211,2.36688 -1.996673,3.21279 -0.319834,0.84165 -0.364345,1.88566 -0.08553,2.00644 0.380483,0.16482 1.125301,-0.0736 1.907419,-0.6106 z m -7.026559,-9.38991 c -1.990285,-0.59996 -2.636803,-3.52957 -1.088002,-4.93015 1.437133,-1.29962 3.82505,-0.77292 4.655725,1.0269 1.030672,2.23316 -1.159413,4.62922 -3.567723,3.90325 z"
     id="path2316"
     inkscape:connector-curvature="0" />
  <flowRoot
     xml:space="preserve"
     id="flowRoot2318"
     style="font-style:normal;font-weight:normal;font-size:40px;line-height:1.25;font-family:sans-serif;letter-spacing:0px;word-spacing:0px;fill:#666666;fill-opacity:1;stroke:none;stroke-width:2.24615693"
     transform="matrix(0.44520488,0,0,0.44520488,-27.578187,253.99032)"><flowRegion
       id="flowRegion2320"
       style="fill:#666666;stroke-width:2.24615693"><rect
         id="rect2322"
         width="278.95364"
         height="84.145699"
         x="78.842407"
         y="421.14938"
         style="fill:#666666;stroke-width:2.24615693" /></flowRegion><flowPara
       id="flowPara2324"
       style="font-style:normal;font-variant:normal;font-weight:normal;font-stretch:normal;font-family:Arial;-inkscape-font-specification:Arial;fill:#666666;stroke-width:4.45616007">Expressa C60</flowPara></flowRoot></svg>
